%TF.GenerationSoftware,KiCad,Pcbnew,9.0.2*%
%TF.CreationDate,2025-07-02T20:50:27-04:00*%
%TF.ProjectId,Hackpad,4861636b-7061-4642-9e6b-696361645f70,rev?*%
%TF.SameCoordinates,Original*%
%TF.FileFunction,Legend,Top*%
%TF.FilePolarity,Positive*%
%FSLAX46Y46*%
G04 Gerber Fmt 4.6, Leading zero omitted, Abs format (unit mm)*
G04 Created by KiCad (PCBNEW 9.0.2) date 2025-07-02 20:50:27*
%MOMM*%
%LPD*%
G01*
G04 APERTURE LIST*
%ADD10C,0.300000*%
%ADD11C,0.150000*%
%ADD12C,0.101600*%
%ADD13C,0.040000*%
%ADD14C,0.120000*%
%ADD15C,0.127000*%
%ADD16C,0.100000*%
%ADD17C,0.504000*%
G04 APERTURE END LIST*
D10*
X213111653Y-60600828D02*
X214111653Y-62100828D01*
X214111653Y-60600828D02*
X213111653Y-62100828D01*
X214683081Y-62100828D02*
X214683081Y-60600828D01*
X215325939Y-61672257D02*
X216040225Y-61672257D01*
X215183082Y-62100828D02*
X215683082Y-60600828D01*
X215683082Y-60600828D02*
X216183082Y-62100828D01*
X216968796Y-60600828D02*
X217254510Y-60600828D01*
X217254510Y-60600828D02*
X217397367Y-60672257D01*
X217397367Y-60672257D02*
X217540224Y-60815114D01*
X217540224Y-60815114D02*
X217611653Y-61100828D01*
X217611653Y-61100828D02*
X217611653Y-61600828D01*
X217611653Y-61600828D02*
X217540224Y-61886542D01*
X217540224Y-61886542D02*
X217397367Y-62029400D01*
X217397367Y-62029400D02*
X217254510Y-62100828D01*
X217254510Y-62100828D02*
X216968796Y-62100828D01*
X216968796Y-62100828D02*
X216825939Y-62029400D01*
X216825939Y-62029400D02*
X216683081Y-61886542D01*
X216683081Y-61886542D02*
X216611653Y-61600828D01*
X216611653Y-61600828D02*
X216611653Y-61100828D01*
X216611653Y-61100828D02*
X216683081Y-60815114D01*
X216683081Y-60815114D02*
X216825939Y-60672257D01*
X216825939Y-60672257D02*
X216968796Y-60600828D01*
X219397367Y-62100828D02*
X219397367Y-60600828D01*
X219397367Y-61315114D02*
X220254510Y-61315114D01*
X220254510Y-62100828D02*
X220254510Y-60600828D01*
X220968796Y-61315114D02*
X221468796Y-61315114D01*
X221683082Y-62100828D02*
X220968796Y-62100828D01*
X220968796Y-62100828D02*
X220968796Y-60600828D01*
X220968796Y-60600828D02*
X221683082Y-60600828D01*
X223183082Y-62100828D02*
X222683082Y-61386542D01*
X222325939Y-62100828D02*
X222325939Y-60600828D01*
X222325939Y-60600828D02*
X222897368Y-60600828D01*
X222897368Y-60600828D02*
X223040225Y-60672257D01*
X223040225Y-60672257D02*
X223111654Y-60743685D01*
X223111654Y-60743685D02*
X223183082Y-60886542D01*
X223183082Y-60886542D02*
X223183082Y-61100828D01*
X223183082Y-61100828D02*
X223111654Y-61243685D01*
X223111654Y-61243685D02*
X223040225Y-61315114D01*
X223040225Y-61315114D02*
X222897368Y-61386542D01*
X222897368Y-61386542D02*
X222325939Y-61386542D01*
X223825939Y-61315114D02*
X224325939Y-61315114D01*
X224540225Y-62100828D02*
X223825939Y-62100828D01*
X223825939Y-62100828D02*
X223825939Y-60600828D01*
X223825939Y-60600828D02*
X224540225Y-60600828D01*
X202889332Y-116053507D02*
X203603618Y-116053507D01*
X202746475Y-116482078D02*
X203246475Y-114982078D01*
X203246475Y-114982078D02*
X203746475Y-116482078D01*
X204889332Y-116410650D02*
X204746474Y-116482078D01*
X204746474Y-116482078D02*
X204460760Y-116482078D01*
X204460760Y-116482078D02*
X204317903Y-116410650D01*
X204317903Y-116410650D02*
X204246474Y-116339221D01*
X204246474Y-116339221D02*
X204175046Y-116196364D01*
X204175046Y-116196364D02*
X204175046Y-115767792D01*
X204175046Y-115767792D02*
X204246474Y-115624935D01*
X204246474Y-115624935D02*
X204317903Y-115553507D01*
X204317903Y-115553507D02*
X204460760Y-115482078D01*
X204460760Y-115482078D02*
X204746474Y-115482078D01*
X204746474Y-115482078D02*
X204889332Y-115553507D01*
X205532188Y-115482078D02*
X205532188Y-116482078D01*
X205532188Y-115624935D02*
X205603617Y-115553507D01*
X205603617Y-115553507D02*
X205746474Y-115482078D01*
X205746474Y-115482078D02*
X205960760Y-115482078D01*
X205960760Y-115482078D02*
X206103617Y-115553507D01*
X206103617Y-115553507D02*
X206175046Y-115696364D01*
X206175046Y-115696364D02*
X206175046Y-116482078D01*
X207460760Y-116410650D02*
X207317903Y-116482078D01*
X207317903Y-116482078D02*
X207032189Y-116482078D01*
X207032189Y-116482078D02*
X206889331Y-116410650D01*
X206889331Y-116410650D02*
X206817903Y-116267792D01*
X206817903Y-116267792D02*
X206817903Y-115696364D01*
X206817903Y-115696364D02*
X206889331Y-115553507D01*
X206889331Y-115553507D02*
X207032189Y-115482078D01*
X207032189Y-115482078D02*
X207317903Y-115482078D01*
X207317903Y-115482078D02*
X207460760Y-115553507D01*
X207460760Y-115553507D02*
X207532189Y-115696364D01*
X207532189Y-115696364D02*
X207532189Y-115839221D01*
X207532189Y-115839221D02*
X206817903Y-115982078D01*
X209032188Y-116339221D02*
X208960760Y-116410650D01*
X208960760Y-116410650D02*
X208746474Y-116482078D01*
X208746474Y-116482078D02*
X208603617Y-116482078D01*
X208603617Y-116482078D02*
X208389331Y-116410650D01*
X208389331Y-116410650D02*
X208246474Y-116267792D01*
X208246474Y-116267792D02*
X208175045Y-116124935D01*
X208175045Y-116124935D02*
X208103617Y-115839221D01*
X208103617Y-115839221D02*
X208103617Y-115624935D01*
X208103617Y-115624935D02*
X208175045Y-115339221D01*
X208175045Y-115339221D02*
X208246474Y-115196364D01*
X208246474Y-115196364D02*
X208389331Y-115053507D01*
X208389331Y-115053507D02*
X208603617Y-114982078D01*
X208603617Y-114982078D02*
X208746474Y-114982078D01*
X208746474Y-114982078D02*
X208960760Y-115053507D01*
X208960760Y-115053507D02*
X209032188Y-115124935D01*
X210317903Y-115482078D02*
X210317903Y-116482078D01*
X209675045Y-115482078D02*
X209675045Y-116267792D01*
X209675045Y-116267792D02*
X209746474Y-116410650D01*
X209746474Y-116410650D02*
X209889331Y-116482078D01*
X209889331Y-116482078D02*
X210103617Y-116482078D01*
X210103617Y-116482078D02*
X210246474Y-116410650D01*
X210246474Y-116410650D02*
X210317903Y-116339221D01*
X211032188Y-116482078D02*
X211032188Y-115482078D01*
X211032188Y-115767792D02*
X211103617Y-115624935D01*
X211103617Y-115624935D02*
X211175046Y-115553507D01*
X211175046Y-115553507D02*
X211317903Y-115482078D01*
X211317903Y-115482078D02*
X211460760Y-115482078D01*
X212603617Y-116482078D02*
X212603617Y-115696364D01*
X212603617Y-115696364D02*
X212532188Y-115553507D01*
X212532188Y-115553507D02*
X212389331Y-115482078D01*
X212389331Y-115482078D02*
X212103617Y-115482078D01*
X212103617Y-115482078D02*
X211960759Y-115553507D01*
X212603617Y-116410650D02*
X212460759Y-116482078D01*
X212460759Y-116482078D02*
X212103617Y-116482078D01*
X212103617Y-116482078D02*
X211960759Y-116410650D01*
X211960759Y-116410650D02*
X211889331Y-116267792D01*
X211889331Y-116267792D02*
X211889331Y-116124935D01*
X211889331Y-116124935D02*
X211960759Y-115982078D01*
X211960759Y-115982078D02*
X212103617Y-115910650D01*
X212103617Y-115910650D02*
X212460759Y-115910650D01*
X212460759Y-115910650D02*
X212603617Y-115839221D01*
X214460759Y-116482078D02*
X214460759Y-114982078D01*
X214460759Y-115696364D02*
X215317902Y-115696364D01*
X215317902Y-116482078D02*
X215317902Y-114982078D01*
X216675046Y-116482078D02*
X216675046Y-115696364D01*
X216675046Y-115696364D02*
X216603617Y-115553507D01*
X216603617Y-115553507D02*
X216460760Y-115482078D01*
X216460760Y-115482078D02*
X216175046Y-115482078D01*
X216175046Y-115482078D02*
X216032188Y-115553507D01*
X216675046Y-116410650D02*
X216532188Y-116482078D01*
X216532188Y-116482078D02*
X216175046Y-116482078D01*
X216175046Y-116482078D02*
X216032188Y-116410650D01*
X216032188Y-116410650D02*
X215960760Y-116267792D01*
X215960760Y-116267792D02*
X215960760Y-116124935D01*
X215960760Y-116124935D02*
X216032188Y-115982078D01*
X216032188Y-115982078D02*
X216175046Y-115910650D01*
X216175046Y-115910650D02*
X216532188Y-115910650D01*
X216532188Y-115910650D02*
X216675046Y-115839221D01*
X218032189Y-116410650D02*
X217889331Y-116482078D01*
X217889331Y-116482078D02*
X217603617Y-116482078D01*
X217603617Y-116482078D02*
X217460760Y-116410650D01*
X217460760Y-116410650D02*
X217389331Y-116339221D01*
X217389331Y-116339221D02*
X217317903Y-116196364D01*
X217317903Y-116196364D02*
X217317903Y-115767792D01*
X217317903Y-115767792D02*
X217389331Y-115624935D01*
X217389331Y-115624935D02*
X217460760Y-115553507D01*
X217460760Y-115553507D02*
X217603617Y-115482078D01*
X217603617Y-115482078D02*
X217889331Y-115482078D01*
X217889331Y-115482078D02*
X218032189Y-115553507D01*
X218675045Y-116482078D02*
X218675045Y-114982078D01*
X218817903Y-115910650D02*
X219246474Y-116482078D01*
X219246474Y-115482078D02*
X218675045Y-116053507D01*
X219889331Y-115482078D02*
X219889331Y-116982078D01*
X219889331Y-115553507D02*
X220032189Y-115482078D01*
X220032189Y-115482078D02*
X220317903Y-115482078D01*
X220317903Y-115482078D02*
X220460760Y-115553507D01*
X220460760Y-115553507D02*
X220532189Y-115624935D01*
X220532189Y-115624935D02*
X220603617Y-115767792D01*
X220603617Y-115767792D02*
X220603617Y-116196364D01*
X220603617Y-116196364D02*
X220532189Y-116339221D01*
X220532189Y-116339221D02*
X220460760Y-116410650D01*
X220460760Y-116410650D02*
X220317903Y-116482078D01*
X220317903Y-116482078D02*
X220032189Y-116482078D01*
X220032189Y-116482078D02*
X219889331Y-116410650D01*
X221889332Y-116482078D02*
X221889332Y-115696364D01*
X221889332Y-115696364D02*
X221817903Y-115553507D01*
X221817903Y-115553507D02*
X221675046Y-115482078D01*
X221675046Y-115482078D02*
X221389332Y-115482078D01*
X221389332Y-115482078D02*
X221246474Y-115553507D01*
X221889332Y-116410650D02*
X221746474Y-116482078D01*
X221746474Y-116482078D02*
X221389332Y-116482078D01*
X221389332Y-116482078D02*
X221246474Y-116410650D01*
X221246474Y-116410650D02*
X221175046Y-116267792D01*
X221175046Y-116267792D02*
X221175046Y-116124935D01*
X221175046Y-116124935D02*
X221246474Y-115982078D01*
X221246474Y-115982078D02*
X221389332Y-115910650D01*
X221389332Y-115910650D02*
X221746474Y-115910650D01*
X221746474Y-115910650D02*
X221889332Y-115839221D01*
X223246475Y-116482078D02*
X223246475Y-114982078D01*
X223246475Y-116410650D02*
X223103617Y-116482078D01*
X223103617Y-116482078D02*
X222817903Y-116482078D01*
X222817903Y-116482078D02*
X222675046Y-116410650D01*
X222675046Y-116410650D02*
X222603617Y-116339221D01*
X222603617Y-116339221D02*
X222532189Y-116196364D01*
X222532189Y-116196364D02*
X222532189Y-115767792D01*
X222532189Y-115767792D02*
X222603617Y-115624935D01*
X222603617Y-115624935D02*
X222675046Y-115553507D01*
X222675046Y-115553507D02*
X222817903Y-115482078D01*
X222817903Y-115482078D02*
X223103617Y-115482078D01*
X223103617Y-115482078D02*
X223246475Y-115553507D01*
D11*
X188769819Y-84386904D02*
X189579342Y-84386904D01*
X189579342Y-84386904D02*
X189674580Y-84339285D01*
X189674580Y-84339285D02*
X189722200Y-84291666D01*
X189722200Y-84291666D02*
X189769819Y-84196428D01*
X189769819Y-84196428D02*
X189769819Y-84005952D01*
X189769819Y-84005952D02*
X189722200Y-83910714D01*
X189722200Y-83910714D02*
X189674580Y-83863095D01*
X189674580Y-83863095D02*
X189579342Y-83815476D01*
X189579342Y-83815476D02*
X188769819Y-83815476D01*
X188865057Y-83386904D02*
X188817438Y-83339285D01*
X188817438Y-83339285D02*
X188769819Y-83244047D01*
X188769819Y-83244047D02*
X188769819Y-83005952D01*
X188769819Y-83005952D02*
X188817438Y-82910714D01*
X188817438Y-82910714D02*
X188865057Y-82863095D01*
X188865057Y-82863095D02*
X188960295Y-82815476D01*
X188960295Y-82815476D02*
X189055533Y-82815476D01*
X189055533Y-82815476D02*
X189198390Y-82863095D01*
X189198390Y-82863095D02*
X189769819Y-83434523D01*
X189769819Y-83434523D02*
X189769819Y-82815476D01*
X222218450Y-85877856D02*
X222254164Y-85770714D01*
X222254164Y-85770714D02*
X222254164Y-85592142D01*
X222254164Y-85592142D02*
X222218450Y-85520714D01*
X222218450Y-85520714D02*
X222182735Y-85484999D01*
X222182735Y-85484999D02*
X222111307Y-85449285D01*
X222111307Y-85449285D02*
X222039878Y-85449285D01*
X222039878Y-85449285D02*
X221968450Y-85484999D01*
X221968450Y-85484999D02*
X221932735Y-85520714D01*
X221932735Y-85520714D02*
X221897021Y-85592142D01*
X221897021Y-85592142D02*
X221861307Y-85734999D01*
X221861307Y-85734999D02*
X221825592Y-85806428D01*
X221825592Y-85806428D02*
X221789878Y-85842142D01*
X221789878Y-85842142D02*
X221718450Y-85877856D01*
X221718450Y-85877856D02*
X221647021Y-85877856D01*
X221647021Y-85877856D02*
X221575592Y-85842142D01*
X221575592Y-85842142D02*
X221539878Y-85806428D01*
X221539878Y-85806428D02*
X221504164Y-85734999D01*
X221504164Y-85734999D02*
X221504164Y-85556428D01*
X221504164Y-85556428D02*
X221539878Y-85449285D01*
X222182735Y-84699285D02*
X222218450Y-84734999D01*
X222218450Y-84734999D02*
X222254164Y-84842142D01*
X222254164Y-84842142D02*
X222254164Y-84913570D01*
X222254164Y-84913570D02*
X222218450Y-85020713D01*
X222218450Y-85020713D02*
X222147021Y-85092142D01*
X222147021Y-85092142D02*
X222075592Y-85127856D01*
X222075592Y-85127856D02*
X221932735Y-85163570D01*
X221932735Y-85163570D02*
X221825592Y-85163570D01*
X221825592Y-85163570D02*
X221682735Y-85127856D01*
X221682735Y-85127856D02*
X221611307Y-85092142D01*
X221611307Y-85092142D02*
X221539878Y-85020713D01*
X221539878Y-85020713D02*
X221504164Y-84913570D01*
X221504164Y-84913570D02*
X221504164Y-84842142D01*
X221504164Y-84842142D02*
X221539878Y-84734999D01*
X221539878Y-84734999D02*
X221575592Y-84699285D01*
X222254164Y-84020713D02*
X222254164Y-84377856D01*
X222254164Y-84377856D02*
X221504164Y-84377856D01*
X202486428Y-83169819D02*
X202676904Y-83169819D01*
X202676904Y-83169819D02*
X202772142Y-83217438D01*
X202772142Y-83217438D02*
X202867380Y-83312676D01*
X202867380Y-83312676D02*
X202914999Y-83503152D01*
X202914999Y-83503152D02*
X202914999Y-83836485D01*
X202914999Y-83836485D02*
X202867380Y-84026961D01*
X202867380Y-84026961D02*
X202772142Y-84122200D01*
X202772142Y-84122200D02*
X202676904Y-84169819D01*
X202676904Y-84169819D02*
X202486428Y-84169819D01*
X202486428Y-84169819D02*
X202391190Y-84122200D01*
X202391190Y-84122200D02*
X202295952Y-84026961D01*
X202295952Y-84026961D02*
X202248333Y-83836485D01*
X202248333Y-83836485D02*
X202248333Y-83503152D01*
X202248333Y-83503152D02*
X202295952Y-83312676D01*
X202295952Y-83312676D02*
X202391190Y-83217438D01*
X202391190Y-83217438D02*
X202486428Y-83169819D01*
X203819761Y-84169819D02*
X203343571Y-84169819D01*
X203343571Y-84169819D02*
X203343571Y-83169819D01*
X204153095Y-83646009D02*
X204486428Y-83646009D01*
X204629285Y-84169819D02*
X204153095Y-84169819D01*
X204153095Y-84169819D02*
X204153095Y-83169819D01*
X204153095Y-83169819D02*
X204629285Y-83169819D01*
X205057857Y-84169819D02*
X205057857Y-83169819D01*
X205057857Y-83169819D02*
X205295952Y-83169819D01*
X205295952Y-83169819D02*
X205438809Y-83217438D01*
X205438809Y-83217438D02*
X205534047Y-83312676D01*
X205534047Y-83312676D02*
X205581666Y-83407914D01*
X205581666Y-83407914D02*
X205629285Y-83598390D01*
X205629285Y-83598390D02*
X205629285Y-83741247D01*
X205629285Y-83741247D02*
X205581666Y-83931723D01*
X205581666Y-83931723D02*
X205534047Y-84026961D01*
X205534047Y-84026961D02*
X205438809Y-84122200D01*
X205438809Y-84122200D02*
X205295952Y-84169819D01*
X205295952Y-84169819D02*
X205057857Y-84169819D01*
X206819762Y-84169819D02*
X206819762Y-83169819D01*
X206819762Y-83169819D02*
X207200714Y-83169819D01*
X207200714Y-83169819D02*
X207295952Y-83217438D01*
X207295952Y-83217438D02*
X207343571Y-83265057D01*
X207343571Y-83265057D02*
X207391190Y-83360295D01*
X207391190Y-83360295D02*
X207391190Y-83503152D01*
X207391190Y-83503152D02*
X207343571Y-83598390D01*
X207343571Y-83598390D02*
X207295952Y-83646009D01*
X207295952Y-83646009D02*
X207200714Y-83693628D01*
X207200714Y-83693628D02*
X206819762Y-83693628D01*
X208248333Y-84169819D02*
X208248333Y-83646009D01*
X208248333Y-83646009D02*
X208200714Y-83550771D01*
X208200714Y-83550771D02*
X208105476Y-83503152D01*
X208105476Y-83503152D02*
X207915000Y-83503152D01*
X207915000Y-83503152D02*
X207819762Y-83550771D01*
X208248333Y-84122200D02*
X208153095Y-84169819D01*
X208153095Y-84169819D02*
X207915000Y-84169819D01*
X207915000Y-84169819D02*
X207819762Y-84122200D01*
X207819762Y-84122200D02*
X207772143Y-84026961D01*
X207772143Y-84026961D02*
X207772143Y-83931723D01*
X207772143Y-83931723D02*
X207819762Y-83836485D01*
X207819762Y-83836485D02*
X207915000Y-83788866D01*
X207915000Y-83788866D02*
X208153095Y-83788866D01*
X208153095Y-83788866D02*
X208248333Y-83741247D01*
X208724524Y-83503152D02*
X208724524Y-84169819D01*
X208724524Y-83598390D02*
X208772143Y-83550771D01*
X208772143Y-83550771D02*
X208867381Y-83503152D01*
X208867381Y-83503152D02*
X209010238Y-83503152D01*
X209010238Y-83503152D02*
X209105476Y-83550771D01*
X209105476Y-83550771D02*
X209153095Y-83646009D01*
X209153095Y-83646009D02*
X209153095Y-84169819D01*
X210010238Y-84122200D02*
X209915000Y-84169819D01*
X209915000Y-84169819D02*
X209724524Y-84169819D01*
X209724524Y-84169819D02*
X209629286Y-84122200D01*
X209629286Y-84122200D02*
X209581667Y-84026961D01*
X209581667Y-84026961D02*
X209581667Y-83646009D01*
X209581667Y-83646009D02*
X209629286Y-83550771D01*
X209629286Y-83550771D02*
X209724524Y-83503152D01*
X209724524Y-83503152D02*
X209915000Y-83503152D01*
X209915000Y-83503152D02*
X210010238Y-83550771D01*
X210010238Y-83550771D02*
X210057857Y-83646009D01*
X210057857Y-83646009D02*
X210057857Y-83741247D01*
X210057857Y-83741247D02*
X209581667Y-83836485D01*
X210629286Y-84169819D02*
X210534048Y-84122200D01*
X210534048Y-84122200D02*
X210486429Y-84026961D01*
X210486429Y-84026961D02*
X210486429Y-83169819D01*
X222218450Y-88435713D02*
X222254164Y-88328571D01*
X222254164Y-88328571D02*
X222254164Y-88149999D01*
X222254164Y-88149999D02*
X222218450Y-88078571D01*
X222218450Y-88078571D02*
X222182735Y-88042856D01*
X222182735Y-88042856D02*
X222111307Y-88007142D01*
X222111307Y-88007142D02*
X222039878Y-88007142D01*
X222039878Y-88007142D02*
X221968450Y-88042856D01*
X221968450Y-88042856D02*
X221932735Y-88078571D01*
X221932735Y-88078571D02*
X221897021Y-88149999D01*
X221897021Y-88149999D02*
X221861307Y-88292856D01*
X221861307Y-88292856D02*
X221825592Y-88364285D01*
X221825592Y-88364285D02*
X221789878Y-88399999D01*
X221789878Y-88399999D02*
X221718450Y-88435713D01*
X221718450Y-88435713D02*
X221647021Y-88435713D01*
X221647021Y-88435713D02*
X221575592Y-88399999D01*
X221575592Y-88399999D02*
X221539878Y-88364285D01*
X221539878Y-88364285D02*
X221504164Y-88292856D01*
X221504164Y-88292856D02*
X221504164Y-88114285D01*
X221504164Y-88114285D02*
X221539878Y-88007142D01*
X222254164Y-87685713D02*
X221504164Y-87685713D01*
X221504164Y-87685713D02*
X221504164Y-87507142D01*
X221504164Y-87507142D02*
X221539878Y-87399999D01*
X221539878Y-87399999D02*
X221611307Y-87328570D01*
X221611307Y-87328570D02*
X221682735Y-87292856D01*
X221682735Y-87292856D02*
X221825592Y-87257142D01*
X221825592Y-87257142D02*
X221932735Y-87257142D01*
X221932735Y-87257142D02*
X222075592Y-87292856D01*
X222075592Y-87292856D02*
X222147021Y-87328570D01*
X222147021Y-87328570D02*
X222218450Y-87399999D01*
X222218450Y-87399999D02*
X222254164Y-87507142D01*
X222254164Y-87507142D02*
X222254164Y-87685713D01*
X222039878Y-86971427D02*
X222039878Y-86614285D01*
X222254164Y-87042856D02*
X221504164Y-86792856D01*
X221504164Y-86792856D02*
X222254164Y-86542856D01*
X221504164Y-83444999D02*
X222254164Y-83194999D01*
X222254164Y-83194999D02*
X221504164Y-82944999D01*
X222182735Y-82266428D02*
X222218450Y-82302142D01*
X222218450Y-82302142D02*
X222254164Y-82409285D01*
X222254164Y-82409285D02*
X222254164Y-82480713D01*
X222254164Y-82480713D02*
X222218450Y-82587856D01*
X222218450Y-82587856D02*
X222147021Y-82659285D01*
X222147021Y-82659285D02*
X222075592Y-82694999D01*
X222075592Y-82694999D02*
X221932735Y-82730713D01*
X221932735Y-82730713D02*
X221825592Y-82730713D01*
X221825592Y-82730713D02*
X221682735Y-82694999D01*
X221682735Y-82694999D02*
X221611307Y-82659285D01*
X221611307Y-82659285D02*
X221539878Y-82587856D01*
X221539878Y-82587856D02*
X221504164Y-82480713D01*
X221504164Y-82480713D02*
X221504164Y-82409285D01*
X221504164Y-82409285D02*
X221539878Y-82302142D01*
X221539878Y-82302142D02*
X221575592Y-82266428D01*
X222182735Y-81516428D02*
X222218450Y-81552142D01*
X222218450Y-81552142D02*
X222254164Y-81659285D01*
X222254164Y-81659285D02*
X222254164Y-81730713D01*
X222254164Y-81730713D02*
X222218450Y-81837856D01*
X222218450Y-81837856D02*
X222147021Y-81909285D01*
X222147021Y-81909285D02*
X222075592Y-81944999D01*
X222075592Y-81944999D02*
X221932735Y-81980713D01*
X221932735Y-81980713D02*
X221825592Y-81980713D01*
X221825592Y-81980713D02*
X221682735Y-81944999D01*
X221682735Y-81944999D02*
X221611307Y-81909285D01*
X221611307Y-81909285D02*
X221539878Y-81837856D01*
X221539878Y-81837856D02*
X221504164Y-81730713D01*
X221504164Y-81730713D02*
X221504164Y-81659285D01*
X221504164Y-81659285D02*
X221539878Y-81552142D01*
X221539878Y-81552142D02*
X221575592Y-81516428D01*
X221539878Y-80476428D02*
X221504164Y-80547857D01*
X221504164Y-80547857D02*
X221504164Y-80654999D01*
X221504164Y-80654999D02*
X221539878Y-80762142D01*
X221539878Y-80762142D02*
X221611307Y-80833571D01*
X221611307Y-80833571D02*
X221682735Y-80869285D01*
X221682735Y-80869285D02*
X221825592Y-80904999D01*
X221825592Y-80904999D02*
X221932735Y-80904999D01*
X221932735Y-80904999D02*
X222075592Y-80869285D01*
X222075592Y-80869285D02*
X222147021Y-80833571D01*
X222147021Y-80833571D02*
X222218450Y-80762142D01*
X222218450Y-80762142D02*
X222254164Y-80654999D01*
X222254164Y-80654999D02*
X222254164Y-80583571D01*
X222254164Y-80583571D02*
X222218450Y-80476428D01*
X222218450Y-80476428D02*
X222182735Y-80440714D01*
X222182735Y-80440714D02*
X221932735Y-80440714D01*
X221932735Y-80440714D02*
X221932735Y-80583571D01*
X222254164Y-80119285D02*
X221504164Y-80119285D01*
X221504164Y-80119285D02*
X222254164Y-79690714D01*
X222254164Y-79690714D02*
X221504164Y-79690714D01*
X222254164Y-79333571D02*
X221504164Y-79333571D01*
X221504164Y-79333571D02*
X221504164Y-79155000D01*
X221504164Y-79155000D02*
X221539878Y-79047857D01*
X221539878Y-79047857D02*
X221611307Y-78976428D01*
X221611307Y-78976428D02*
X221682735Y-78940714D01*
X221682735Y-78940714D02*
X221825592Y-78905000D01*
X221825592Y-78905000D02*
X221932735Y-78905000D01*
X221932735Y-78905000D02*
X222075592Y-78940714D01*
X222075592Y-78940714D02*
X222147021Y-78976428D01*
X222147021Y-78976428D02*
X222218450Y-79047857D01*
X222218450Y-79047857D02*
X222254164Y-79155000D01*
X222254164Y-79155000D02*
X222254164Y-79333571D01*
X132016667Y-97308200D02*
X132159524Y-97355819D01*
X132159524Y-97355819D02*
X132397619Y-97355819D01*
X132397619Y-97355819D02*
X132492857Y-97308200D01*
X132492857Y-97308200D02*
X132540476Y-97260580D01*
X132540476Y-97260580D02*
X132588095Y-97165342D01*
X132588095Y-97165342D02*
X132588095Y-97070104D01*
X132588095Y-97070104D02*
X132540476Y-96974866D01*
X132540476Y-96974866D02*
X132492857Y-96927247D01*
X132492857Y-96927247D02*
X132397619Y-96879628D01*
X132397619Y-96879628D02*
X132207143Y-96832009D01*
X132207143Y-96832009D02*
X132111905Y-96784390D01*
X132111905Y-96784390D02*
X132064286Y-96736771D01*
X132064286Y-96736771D02*
X132016667Y-96641533D01*
X132016667Y-96641533D02*
X132016667Y-96546295D01*
X132016667Y-96546295D02*
X132064286Y-96451057D01*
X132064286Y-96451057D02*
X132111905Y-96403438D01*
X132111905Y-96403438D02*
X132207143Y-96355819D01*
X132207143Y-96355819D02*
X132445238Y-96355819D01*
X132445238Y-96355819D02*
X132588095Y-96403438D01*
X132921429Y-96355819D02*
X133159524Y-97355819D01*
X133159524Y-97355819D02*
X133350000Y-96641533D01*
X133350000Y-96641533D02*
X133540476Y-97355819D01*
X133540476Y-97355819D02*
X133778572Y-96355819D01*
X134064286Y-96355819D02*
X134730952Y-96355819D01*
X134730952Y-96355819D02*
X134302381Y-97355819D01*
X151066667Y-78258200D02*
X151209524Y-78305819D01*
X151209524Y-78305819D02*
X151447619Y-78305819D01*
X151447619Y-78305819D02*
X151542857Y-78258200D01*
X151542857Y-78258200D02*
X151590476Y-78210580D01*
X151590476Y-78210580D02*
X151638095Y-78115342D01*
X151638095Y-78115342D02*
X151638095Y-78020104D01*
X151638095Y-78020104D02*
X151590476Y-77924866D01*
X151590476Y-77924866D02*
X151542857Y-77877247D01*
X151542857Y-77877247D02*
X151447619Y-77829628D01*
X151447619Y-77829628D02*
X151257143Y-77782009D01*
X151257143Y-77782009D02*
X151161905Y-77734390D01*
X151161905Y-77734390D02*
X151114286Y-77686771D01*
X151114286Y-77686771D02*
X151066667Y-77591533D01*
X151066667Y-77591533D02*
X151066667Y-77496295D01*
X151066667Y-77496295D02*
X151114286Y-77401057D01*
X151114286Y-77401057D02*
X151161905Y-77353438D01*
X151161905Y-77353438D02*
X151257143Y-77305819D01*
X151257143Y-77305819D02*
X151495238Y-77305819D01*
X151495238Y-77305819D02*
X151638095Y-77353438D01*
X151971429Y-77305819D02*
X152209524Y-78305819D01*
X152209524Y-78305819D02*
X152400000Y-77591533D01*
X152400000Y-77591533D02*
X152590476Y-78305819D01*
X152590476Y-78305819D02*
X152828572Y-77305819D01*
X153685714Y-77305819D02*
X153209524Y-77305819D01*
X153209524Y-77305819D02*
X153161905Y-77782009D01*
X153161905Y-77782009D02*
X153209524Y-77734390D01*
X153209524Y-77734390D02*
X153304762Y-77686771D01*
X153304762Y-77686771D02*
X153542857Y-77686771D01*
X153542857Y-77686771D02*
X153638095Y-77734390D01*
X153638095Y-77734390D02*
X153685714Y-77782009D01*
X153685714Y-77782009D02*
X153733333Y-77877247D01*
X153733333Y-77877247D02*
X153733333Y-78115342D01*
X153733333Y-78115342D02*
X153685714Y-78210580D01*
X153685714Y-78210580D02*
X153638095Y-78258200D01*
X153638095Y-78258200D02*
X153542857Y-78305819D01*
X153542857Y-78305819D02*
X153304762Y-78305819D01*
X153304762Y-78305819D02*
X153209524Y-78258200D01*
X153209524Y-78258200D02*
X153161905Y-78210580D01*
X179309819Y-104560594D02*
X178309819Y-104560594D01*
X178309819Y-104560594D02*
X178309819Y-104322499D01*
X178309819Y-104322499D02*
X178357438Y-104179642D01*
X178357438Y-104179642D02*
X178452676Y-104084404D01*
X178452676Y-104084404D02*
X178547914Y-104036785D01*
X178547914Y-104036785D02*
X178738390Y-103989166D01*
X178738390Y-103989166D02*
X178881247Y-103989166D01*
X178881247Y-103989166D02*
X179071723Y-104036785D01*
X179071723Y-104036785D02*
X179166961Y-104084404D01*
X179166961Y-104084404D02*
X179262200Y-104179642D01*
X179262200Y-104179642D02*
X179309819Y-104322499D01*
X179309819Y-104322499D02*
X179309819Y-104560594D01*
X179309819Y-103512975D02*
X179309819Y-103322499D01*
X179309819Y-103322499D02*
X179262200Y-103227261D01*
X179262200Y-103227261D02*
X179214580Y-103179642D01*
X179214580Y-103179642D02*
X179071723Y-103084404D01*
X179071723Y-103084404D02*
X178881247Y-103036785D01*
X178881247Y-103036785D02*
X178500295Y-103036785D01*
X178500295Y-103036785D02*
X178405057Y-103084404D01*
X178405057Y-103084404D02*
X178357438Y-103132023D01*
X178357438Y-103132023D02*
X178309819Y-103227261D01*
X178309819Y-103227261D02*
X178309819Y-103417737D01*
X178309819Y-103417737D02*
X178357438Y-103512975D01*
X178357438Y-103512975D02*
X178405057Y-103560594D01*
X178405057Y-103560594D02*
X178500295Y-103608213D01*
X178500295Y-103608213D02*
X178738390Y-103608213D01*
X178738390Y-103608213D02*
X178833628Y-103560594D01*
X178833628Y-103560594D02*
X178881247Y-103512975D01*
X178881247Y-103512975D02*
X178928866Y-103417737D01*
X178928866Y-103417737D02*
X178928866Y-103227261D01*
X178928866Y-103227261D02*
X178881247Y-103132023D01*
X178881247Y-103132023D02*
X178833628Y-103084404D01*
X178833628Y-103084404D02*
X178738390Y-103036785D01*
X179629819Y-107894404D02*
X178629819Y-107894404D01*
X179629819Y-107322976D02*
X179058390Y-107751547D01*
X178629819Y-107322976D02*
X179201247Y-107894404D01*
X160259819Y-104560594D02*
X159259819Y-104560594D01*
X159259819Y-104560594D02*
X159259819Y-104322499D01*
X159259819Y-104322499D02*
X159307438Y-104179642D01*
X159307438Y-104179642D02*
X159402676Y-104084404D01*
X159402676Y-104084404D02*
X159497914Y-104036785D01*
X159497914Y-104036785D02*
X159688390Y-103989166D01*
X159688390Y-103989166D02*
X159831247Y-103989166D01*
X159831247Y-103989166D02*
X160021723Y-104036785D01*
X160021723Y-104036785D02*
X160116961Y-104084404D01*
X160116961Y-104084404D02*
X160212200Y-104179642D01*
X160212200Y-104179642D02*
X160259819Y-104322499D01*
X160259819Y-104322499D02*
X160259819Y-104560594D01*
X159688390Y-103417737D02*
X159640771Y-103512975D01*
X159640771Y-103512975D02*
X159593152Y-103560594D01*
X159593152Y-103560594D02*
X159497914Y-103608213D01*
X159497914Y-103608213D02*
X159450295Y-103608213D01*
X159450295Y-103608213D02*
X159355057Y-103560594D01*
X159355057Y-103560594D02*
X159307438Y-103512975D01*
X159307438Y-103512975D02*
X159259819Y-103417737D01*
X159259819Y-103417737D02*
X159259819Y-103227261D01*
X159259819Y-103227261D02*
X159307438Y-103132023D01*
X159307438Y-103132023D02*
X159355057Y-103084404D01*
X159355057Y-103084404D02*
X159450295Y-103036785D01*
X159450295Y-103036785D02*
X159497914Y-103036785D01*
X159497914Y-103036785D02*
X159593152Y-103084404D01*
X159593152Y-103084404D02*
X159640771Y-103132023D01*
X159640771Y-103132023D02*
X159688390Y-103227261D01*
X159688390Y-103227261D02*
X159688390Y-103417737D01*
X159688390Y-103417737D02*
X159736009Y-103512975D01*
X159736009Y-103512975D02*
X159783628Y-103560594D01*
X159783628Y-103560594D02*
X159878866Y-103608213D01*
X159878866Y-103608213D02*
X160069342Y-103608213D01*
X160069342Y-103608213D02*
X160164580Y-103560594D01*
X160164580Y-103560594D02*
X160212200Y-103512975D01*
X160212200Y-103512975D02*
X160259819Y-103417737D01*
X160259819Y-103417737D02*
X160259819Y-103227261D01*
X160259819Y-103227261D02*
X160212200Y-103132023D01*
X160212200Y-103132023D02*
X160164580Y-103084404D01*
X160164580Y-103084404D02*
X160069342Y-103036785D01*
X160069342Y-103036785D02*
X159878866Y-103036785D01*
X159878866Y-103036785D02*
X159783628Y-103084404D01*
X159783628Y-103084404D02*
X159736009Y-103132023D01*
X159736009Y-103132023D02*
X159688390Y-103227261D01*
X160579819Y-107894404D02*
X159579819Y-107894404D01*
X160579819Y-107322976D02*
X160008390Y-107751547D01*
X159579819Y-107322976D02*
X160151247Y-107894404D01*
X179309819Y-85510594D02*
X178309819Y-85510594D01*
X178309819Y-85510594D02*
X178309819Y-85272499D01*
X178309819Y-85272499D02*
X178357438Y-85129642D01*
X178357438Y-85129642D02*
X178452676Y-85034404D01*
X178452676Y-85034404D02*
X178547914Y-84986785D01*
X178547914Y-84986785D02*
X178738390Y-84939166D01*
X178738390Y-84939166D02*
X178881247Y-84939166D01*
X178881247Y-84939166D02*
X179071723Y-84986785D01*
X179071723Y-84986785D02*
X179166961Y-85034404D01*
X179166961Y-85034404D02*
X179262200Y-85129642D01*
X179262200Y-85129642D02*
X179309819Y-85272499D01*
X179309819Y-85272499D02*
X179309819Y-85510594D01*
X178309819Y-84082023D02*
X178309819Y-84272499D01*
X178309819Y-84272499D02*
X178357438Y-84367737D01*
X178357438Y-84367737D02*
X178405057Y-84415356D01*
X178405057Y-84415356D02*
X178547914Y-84510594D01*
X178547914Y-84510594D02*
X178738390Y-84558213D01*
X178738390Y-84558213D02*
X179119342Y-84558213D01*
X179119342Y-84558213D02*
X179214580Y-84510594D01*
X179214580Y-84510594D02*
X179262200Y-84462975D01*
X179262200Y-84462975D02*
X179309819Y-84367737D01*
X179309819Y-84367737D02*
X179309819Y-84177261D01*
X179309819Y-84177261D02*
X179262200Y-84082023D01*
X179262200Y-84082023D02*
X179214580Y-84034404D01*
X179214580Y-84034404D02*
X179119342Y-83986785D01*
X179119342Y-83986785D02*
X178881247Y-83986785D01*
X178881247Y-83986785D02*
X178786009Y-84034404D01*
X178786009Y-84034404D02*
X178738390Y-84082023D01*
X178738390Y-84082023D02*
X178690771Y-84177261D01*
X178690771Y-84177261D02*
X178690771Y-84367737D01*
X178690771Y-84367737D02*
X178738390Y-84462975D01*
X178738390Y-84462975D02*
X178786009Y-84510594D01*
X178786009Y-84510594D02*
X178881247Y-84558213D01*
X179629819Y-88844404D02*
X178629819Y-88844404D01*
X179629819Y-88272976D02*
X179058390Y-88701547D01*
X178629819Y-88272976D02*
X179201247Y-88844404D01*
X132016667Y-59208200D02*
X132159524Y-59255819D01*
X132159524Y-59255819D02*
X132397619Y-59255819D01*
X132397619Y-59255819D02*
X132492857Y-59208200D01*
X132492857Y-59208200D02*
X132540476Y-59160580D01*
X132540476Y-59160580D02*
X132588095Y-59065342D01*
X132588095Y-59065342D02*
X132588095Y-58970104D01*
X132588095Y-58970104D02*
X132540476Y-58874866D01*
X132540476Y-58874866D02*
X132492857Y-58827247D01*
X132492857Y-58827247D02*
X132397619Y-58779628D01*
X132397619Y-58779628D02*
X132207143Y-58732009D01*
X132207143Y-58732009D02*
X132111905Y-58684390D01*
X132111905Y-58684390D02*
X132064286Y-58636771D01*
X132064286Y-58636771D02*
X132016667Y-58541533D01*
X132016667Y-58541533D02*
X132016667Y-58446295D01*
X132016667Y-58446295D02*
X132064286Y-58351057D01*
X132064286Y-58351057D02*
X132111905Y-58303438D01*
X132111905Y-58303438D02*
X132207143Y-58255819D01*
X132207143Y-58255819D02*
X132445238Y-58255819D01*
X132445238Y-58255819D02*
X132588095Y-58303438D01*
X132921429Y-58255819D02*
X133159524Y-59255819D01*
X133159524Y-59255819D02*
X133350000Y-58541533D01*
X133350000Y-58541533D02*
X133540476Y-59255819D01*
X133540476Y-59255819D02*
X133778572Y-58255819D01*
X134683333Y-59255819D02*
X134111905Y-59255819D01*
X134397619Y-59255819D02*
X134397619Y-58255819D01*
X134397619Y-58255819D02*
X134302381Y-58398676D01*
X134302381Y-58398676D02*
X134207143Y-58493914D01*
X134207143Y-58493914D02*
X134111905Y-58541533D01*
X170116667Y-78258200D02*
X170259524Y-78305819D01*
X170259524Y-78305819D02*
X170497619Y-78305819D01*
X170497619Y-78305819D02*
X170592857Y-78258200D01*
X170592857Y-78258200D02*
X170640476Y-78210580D01*
X170640476Y-78210580D02*
X170688095Y-78115342D01*
X170688095Y-78115342D02*
X170688095Y-78020104D01*
X170688095Y-78020104D02*
X170640476Y-77924866D01*
X170640476Y-77924866D02*
X170592857Y-77877247D01*
X170592857Y-77877247D02*
X170497619Y-77829628D01*
X170497619Y-77829628D02*
X170307143Y-77782009D01*
X170307143Y-77782009D02*
X170211905Y-77734390D01*
X170211905Y-77734390D02*
X170164286Y-77686771D01*
X170164286Y-77686771D02*
X170116667Y-77591533D01*
X170116667Y-77591533D02*
X170116667Y-77496295D01*
X170116667Y-77496295D02*
X170164286Y-77401057D01*
X170164286Y-77401057D02*
X170211905Y-77353438D01*
X170211905Y-77353438D02*
X170307143Y-77305819D01*
X170307143Y-77305819D02*
X170545238Y-77305819D01*
X170545238Y-77305819D02*
X170688095Y-77353438D01*
X171021429Y-77305819D02*
X171259524Y-78305819D01*
X171259524Y-78305819D02*
X171450000Y-77591533D01*
X171450000Y-77591533D02*
X171640476Y-78305819D01*
X171640476Y-78305819D02*
X171878572Y-77305819D01*
X172688095Y-77305819D02*
X172497619Y-77305819D01*
X172497619Y-77305819D02*
X172402381Y-77353438D01*
X172402381Y-77353438D02*
X172354762Y-77401057D01*
X172354762Y-77401057D02*
X172259524Y-77543914D01*
X172259524Y-77543914D02*
X172211905Y-77734390D01*
X172211905Y-77734390D02*
X172211905Y-78115342D01*
X172211905Y-78115342D02*
X172259524Y-78210580D01*
X172259524Y-78210580D02*
X172307143Y-78258200D01*
X172307143Y-78258200D02*
X172402381Y-78305819D01*
X172402381Y-78305819D02*
X172592857Y-78305819D01*
X172592857Y-78305819D02*
X172688095Y-78258200D01*
X172688095Y-78258200D02*
X172735714Y-78210580D01*
X172735714Y-78210580D02*
X172783333Y-78115342D01*
X172783333Y-78115342D02*
X172783333Y-77877247D01*
X172783333Y-77877247D02*
X172735714Y-77782009D01*
X172735714Y-77782009D02*
X172688095Y-77734390D01*
X172688095Y-77734390D02*
X172592857Y-77686771D01*
X172592857Y-77686771D02*
X172402381Y-77686771D01*
X172402381Y-77686771D02*
X172307143Y-77734390D01*
X172307143Y-77734390D02*
X172259524Y-77782009D01*
X172259524Y-77782009D02*
X172211905Y-77877247D01*
X151066667Y-59208200D02*
X151209524Y-59255819D01*
X151209524Y-59255819D02*
X151447619Y-59255819D01*
X151447619Y-59255819D02*
X151542857Y-59208200D01*
X151542857Y-59208200D02*
X151590476Y-59160580D01*
X151590476Y-59160580D02*
X151638095Y-59065342D01*
X151638095Y-59065342D02*
X151638095Y-58970104D01*
X151638095Y-58970104D02*
X151590476Y-58874866D01*
X151590476Y-58874866D02*
X151542857Y-58827247D01*
X151542857Y-58827247D02*
X151447619Y-58779628D01*
X151447619Y-58779628D02*
X151257143Y-58732009D01*
X151257143Y-58732009D02*
X151161905Y-58684390D01*
X151161905Y-58684390D02*
X151114286Y-58636771D01*
X151114286Y-58636771D02*
X151066667Y-58541533D01*
X151066667Y-58541533D02*
X151066667Y-58446295D01*
X151066667Y-58446295D02*
X151114286Y-58351057D01*
X151114286Y-58351057D02*
X151161905Y-58303438D01*
X151161905Y-58303438D02*
X151257143Y-58255819D01*
X151257143Y-58255819D02*
X151495238Y-58255819D01*
X151495238Y-58255819D02*
X151638095Y-58303438D01*
X151971429Y-58255819D02*
X152209524Y-59255819D01*
X152209524Y-59255819D02*
X152400000Y-58541533D01*
X152400000Y-58541533D02*
X152590476Y-59255819D01*
X152590476Y-59255819D02*
X152828572Y-58255819D01*
X153161905Y-58351057D02*
X153209524Y-58303438D01*
X153209524Y-58303438D02*
X153304762Y-58255819D01*
X153304762Y-58255819D02*
X153542857Y-58255819D01*
X153542857Y-58255819D02*
X153638095Y-58303438D01*
X153638095Y-58303438D02*
X153685714Y-58351057D01*
X153685714Y-58351057D02*
X153733333Y-58446295D01*
X153733333Y-58446295D02*
X153733333Y-58541533D01*
X153733333Y-58541533D02*
X153685714Y-58684390D01*
X153685714Y-58684390D02*
X153114286Y-59255819D01*
X153114286Y-59255819D02*
X153733333Y-59255819D01*
D12*
X230646520Y-52816190D02*
X230132473Y-52816190D01*
X230132473Y-52816190D02*
X230071997Y-52846428D01*
X230071997Y-52846428D02*
X230041759Y-52876666D01*
X230041759Y-52876666D02*
X230011520Y-52937142D01*
X230011520Y-52937142D02*
X230011520Y-53058095D01*
X230011520Y-53058095D02*
X230041759Y-53118571D01*
X230041759Y-53118571D02*
X230071997Y-53148809D01*
X230071997Y-53148809D02*
X230132473Y-53179047D01*
X230132473Y-53179047D02*
X230646520Y-53179047D01*
X230011520Y-53814047D02*
X230011520Y-53451190D01*
X230011520Y-53632618D02*
X230646520Y-53632618D01*
X230646520Y-53632618D02*
X230555806Y-53572142D01*
X230555806Y-53572142D02*
X230495330Y-53511666D01*
X230495330Y-53511666D02*
X230465092Y-53451190D01*
D11*
X160259819Y-85510594D02*
X159259819Y-85510594D01*
X159259819Y-85510594D02*
X159259819Y-85272499D01*
X159259819Y-85272499D02*
X159307438Y-85129642D01*
X159307438Y-85129642D02*
X159402676Y-85034404D01*
X159402676Y-85034404D02*
X159497914Y-84986785D01*
X159497914Y-84986785D02*
X159688390Y-84939166D01*
X159688390Y-84939166D02*
X159831247Y-84939166D01*
X159831247Y-84939166D02*
X160021723Y-84986785D01*
X160021723Y-84986785D02*
X160116961Y-85034404D01*
X160116961Y-85034404D02*
X160212200Y-85129642D01*
X160212200Y-85129642D02*
X160259819Y-85272499D01*
X160259819Y-85272499D02*
X160259819Y-85510594D01*
X159259819Y-84034404D02*
X159259819Y-84510594D01*
X159259819Y-84510594D02*
X159736009Y-84558213D01*
X159736009Y-84558213D02*
X159688390Y-84510594D01*
X159688390Y-84510594D02*
X159640771Y-84415356D01*
X159640771Y-84415356D02*
X159640771Y-84177261D01*
X159640771Y-84177261D02*
X159688390Y-84082023D01*
X159688390Y-84082023D02*
X159736009Y-84034404D01*
X159736009Y-84034404D02*
X159831247Y-83986785D01*
X159831247Y-83986785D02*
X160069342Y-83986785D01*
X160069342Y-83986785D02*
X160164580Y-84034404D01*
X160164580Y-84034404D02*
X160212200Y-84082023D01*
X160212200Y-84082023D02*
X160259819Y-84177261D01*
X160259819Y-84177261D02*
X160259819Y-84415356D01*
X160259819Y-84415356D02*
X160212200Y-84510594D01*
X160212200Y-84510594D02*
X160164580Y-84558213D01*
X160579819Y-88844404D02*
X159579819Y-88844404D01*
X160579819Y-88272976D02*
X160008390Y-88701547D01*
X159579819Y-88272976D02*
X160151247Y-88844404D01*
X170116667Y-59208200D02*
X170259524Y-59255819D01*
X170259524Y-59255819D02*
X170497619Y-59255819D01*
X170497619Y-59255819D02*
X170592857Y-59208200D01*
X170592857Y-59208200D02*
X170640476Y-59160580D01*
X170640476Y-59160580D02*
X170688095Y-59065342D01*
X170688095Y-59065342D02*
X170688095Y-58970104D01*
X170688095Y-58970104D02*
X170640476Y-58874866D01*
X170640476Y-58874866D02*
X170592857Y-58827247D01*
X170592857Y-58827247D02*
X170497619Y-58779628D01*
X170497619Y-58779628D02*
X170307143Y-58732009D01*
X170307143Y-58732009D02*
X170211905Y-58684390D01*
X170211905Y-58684390D02*
X170164286Y-58636771D01*
X170164286Y-58636771D02*
X170116667Y-58541533D01*
X170116667Y-58541533D02*
X170116667Y-58446295D01*
X170116667Y-58446295D02*
X170164286Y-58351057D01*
X170164286Y-58351057D02*
X170211905Y-58303438D01*
X170211905Y-58303438D02*
X170307143Y-58255819D01*
X170307143Y-58255819D02*
X170545238Y-58255819D01*
X170545238Y-58255819D02*
X170688095Y-58303438D01*
X171021429Y-58255819D02*
X171259524Y-59255819D01*
X171259524Y-59255819D02*
X171450000Y-58541533D01*
X171450000Y-58541533D02*
X171640476Y-59255819D01*
X171640476Y-59255819D02*
X171878572Y-58255819D01*
X172164286Y-58255819D02*
X172783333Y-58255819D01*
X172783333Y-58255819D02*
X172450000Y-58636771D01*
X172450000Y-58636771D02*
X172592857Y-58636771D01*
X172592857Y-58636771D02*
X172688095Y-58684390D01*
X172688095Y-58684390D02*
X172735714Y-58732009D01*
X172735714Y-58732009D02*
X172783333Y-58827247D01*
X172783333Y-58827247D02*
X172783333Y-59065342D01*
X172783333Y-59065342D02*
X172735714Y-59160580D01*
X172735714Y-59160580D02*
X172688095Y-59208200D01*
X172688095Y-59208200D02*
X172592857Y-59255819D01*
X172592857Y-59255819D02*
X172307143Y-59255819D01*
X172307143Y-59255819D02*
X172211905Y-59208200D01*
X172211905Y-59208200D02*
X172164286Y-59160580D01*
X151066667Y-97308200D02*
X151209524Y-97355819D01*
X151209524Y-97355819D02*
X151447619Y-97355819D01*
X151447619Y-97355819D02*
X151542857Y-97308200D01*
X151542857Y-97308200D02*
X151590476Y-97260580D01*
X151590476Y-97260580D02*
X151638095Y-97165342D01*
X151638095Y-97165342D02*
X151638095Y-97070104D01*
X151638095Y-97070104D02*
X151590476Y-96974866D01*
X151590476Y-96974866D02*
X151542857Y-96927247D01*
X151542857Y-96927247D02*
X151447619Y-96879628D01*
X151447619Y-96879628D02*
X151257143Y-96832009D01*
X151257143Y-96832009D02*
X151161905Y-96784390D01*
X151161905Y-96784390D02*
X151114286Y-96736771D01*
X151114286Y-96736771D02*
X151066667Y-96641533D01*
X151066667Y-96641533D02*
X151066667Y-96546295D01*
X151066667Y-96546295D02*
X151114286Y-96451057D01*
X151114286Y-96451057D02*
X151161905Y-96403438D01*
X151161905Y-96403438D02*
X151257143Y-96355819D01*
X151257143Y-96355819D02*
X151495238Y-96355819D01*
X151495238Y-96355819D02*
X151638095Y-96403438D01*
X151971429Y-96355819D02*
X152209524Y-97355819D01*
X152209524Y-97355819D02*
X152400000Y-96641533D01*
X152400000Y-96641533D02*
X152590476Y-97355819D01*
X152590476Y-97355819D02*
X152828572Y-96355819D01*
X153352381Y-96784390D02*
X153257143Y-96736771D01*
X153257143Y-96736771D02*
X153209524Y-96689152D01*
X153209524Y-96689152D02*
X153161905Y-96593914D01*
X153161905Y-96593914D02*
X153161905Y-96546295D01*
X153161905Y-96546295D02*
X153209524Y-96451057D01*
X153209524Y-96451057D02*
X153257143Y-96403438D01*
X153257143Y-96403438D02*
X153352381Y-96355819D01*
X153352381Y-96355819D02*
X153542857Y-96355819D01*
X153542857Y-96355819D02*
X153638095Y-96403438D01*
X153638095Y-96403438D02*
X153685714Y-96451057D01*
X153685714Y-96451057D02*
X153733333Y-96546295D01*
X153733333Y-96546295D02*
X153733333Y-96593914D01*
X153733333Y-96593914D02*
X153685714Y-96689152D01*
X153685714Y-96689152D02*
X153638095Y-96736771D01*
X153638095Y-96736771D02*
X153542857Y-96784390D01*
X153542857Y-96784390D02*
X153352381Y-96784390D01*
X153352381Y-96784390D02*
X153257143Y-96832009D01*
X153257143Y-96832009D02*
X153209524Y-96879628D01*
X153209524Y-96879628D02*
X153161905Y-96974866D01*
X153161905Y-96974866D02*
X153161905Y-97165342D01*
X153161905Y-97165342D02*
X153209524Y-97260580D01*
X153209524Y-97260580D02*
X153257143Y-97308200D01*
X153257143Y-97308200D02*
X153352381Y-97355819D01*
X153352381Y-97355819D02*
X153542857Y-97355819D01*
X153542857Y-97355819D02*
X153638095Y-97308200D01*
X153638095Y-97308200D02*
X153685714Y-97260580D01*
X153685714Y-97260580D02*
X153733333Y-97165342D01*
X153733333Y-97165342D02*
X153733333Y-96974866D01*
X153733333Y-96974866D02*
X153685714Y-96879628D01*
X153685714Y-96879628D02*
X153638095Y-96832009D01*
X153638095Y-96832009D02*
X153542857Y-96784390D01*
X141209819Y-85510594D02*
X140209819Y-85510594D01*
X140209819Y-85510594D02*
X140209819Y-85272499D01*
X140209819Y-85272499D02*
X140257438Y-85129642D01*
X140257438Y-85129642D02*
X140352676Y-85034404D01*
X140352676Y-85034404D02*
X140447914Y-84986785D01*
X140447914Y-84986785D02*
X140638390Y-84939166D01*
X140638390Y-84939166D02*
X140781247Y-84939166D01*
X140781247Y-84939166D02*
X140971723Y-84986785D01*
X140971723Y-84986785D02*
X141066961Y-85034404D01*
X141066961Y-85034404D02*
X141162200Y-85129642D01*
X141162200Y-85129642D02*
X141209819Y-85272499D01*
X141209819Y-85272499D02*
X141209819Y-85510594D01*
X140543152Y-84082023D02*
X141209819Y-84082023D01*
X140162200Y-84320118D02*
X140876485Y-84558213D01*
X140876485Y-84558213D02*
X140876485Y-83939166D01*
X141529819Y-88844404D02*
X140529819Y-88844404D01*
X141529819Y-88272976D02*
X140958390Y-88701547D01*
X140529819Y-88272976D02*
X141101247Y-88844404D01*
X170116667Y-97308200D02*
X170259524Y-97355819D01*
X170259524Y-97355819D02*
X170497619Y-97355819D01*
X170497619Y-97355819D02*
X170592857Y-97308200D01*
X170592857Y-97308200D02*
X170640476Y-97260580D01*
X170640476Y-97260580D02*
X170688095Y-97165342D01*
X170688095Y-97165342D02*
X170688095Y-97070104D01*
X170688095Y-97070104D02*
X170640476Y-96974866D01*
X170640476Y-96974866D02*
X170592857Y-96927247D01*
X170592857Y-96927247D02*
X170497619Y-96879628D01*
X170497619Y-96879628D02*
X170307143Y-96832009D01*
X170307143Y-96832009D02*
X170211905Y-96784390D01*
X170211905Y-96784390D02*
X170164286Y-96736771D01*
X170164286Y-96736771D02*
X170116667Y-96641533D01*
X170116667Y-96641533D02*
X170116667Y-96546295D01*
X170116667Y-96546295D02*
X170164286Y-96451057D01*
X170164286Y-96451057D02*
X170211905Y-96403438D01*
X170211905Y-96403438D02*
X170307143Y-96355819D01*
X170307143Y-96355819D02*
X170545238Y-96355819D01*
X170545238Y-96355819D02*
X170688095Y-96403438D01*
X171021429Y-96355819D02*
X171259524Y-97355819D01*
X171259524Y-97355819D02*
X171450000Y-96641533D01*
X171450000Y-96641533D02*
X171640476Y-97355819D01*
X171640476Y-97355819D02*
X171878572Y-96355819D01*
X172307143Y-97355819D02*
X172497619Y-97355819D01*
X172497619Y-97355819D02*
X172592857Y-97308200D01*
X172592857Y-97308200D02*
X172640476Y-97260580D01*
X172640476Y-97260580D02*
X172735714Y-97117723D01*
X172735714Y-97117723D02*
X172783333Y-96927247D01*
X172783333Y-96927247D02*
X172783333Y-96546295D01*
X172783333Y-96546295D02*
X172735714Y-96451057D01*
X172735714Y-96451057D02*
X172688095Y-96403438D01*
X172688095Y-96403438D02*
X172592857Y-96355819D01*
X172592857Y-96355819D02*
X172402381Y-96355819D01*
X172402381Y-96355819D02*
X172307143Y-96403438D01*
X172307143Y-96403438D02*
X172259524Y-96451057D01*
X172259524Y-96451057D02*
X172211905Y-96546295D01*
X172211905Y-96546295D02*
X172211905Y-96784390D01*
X172211905Y-96784390D02*
X172259524Y-96879628D01*
X172259524Y-96879628D02*
X172307143Y-96927247D01*
X172307143Y-96927247D02*
X172402381Y-96974866D01*
X172402381Y-96974866D02*
X172592857Y-96974866D01*
X172592857Y-96974866D02*
X172688095Y-96927247D01*
X172688095Y-96927247D02*
X172735714Y-96879628D01*
X172735714Y-96879628D02*
X172783333Y-96784390D01*
X141209819Y-66460594D02*
X140209819Y-66460594D01*
X140209819Y-66460594D02*
X140209819Y-66222499D01*
X140209819Y-66222499D02*
X140257438Y-66079642D01*
X140257438Y-66079642D02*
X140352676Y-65984404D01*
X140352676Y-65984404D02*
X140447914Y-65936785D01*
X140447914Y-65936785D02*
X140638390Y-65889166D01*
X140638390Y-65889166D02*
X140781247Y-65889166D01*
X140781247Y-65889166D02*
X140971723Y-65936785D01*
X140971723Y-65936785D02*
X141066961Y-65984404D01*
X141066961Y-65984404D02*
X141162200Y-66079642D01*
X141162200Y-66079642D02*
X141209819Y-66222499D01*
X141209819Y-66222499D02*
X141209819Y-66460594D01*
X141209819Y-64936785D02*
X141209819Y-65508213D01*
X141209819Y-65222499D02*
X140209819Y-65222499D01*
X140209819Y-65222499D02*
X140352676Y-65317737D01*
X140352676Y-65317737D02*
X140447914Y-65412975D01*
X140447914Y-65412975D02*
X140495533Y-65508213D01*
X141529819Y-69794404D02*
X140529819Y-69794404D01*
X141529819Y-69222976D02*
X140958390Y-69651547D01*
X140529819Y-69222976D02*
X141101247Y-69794404D01*
X141209819Y-104560594D02*
X140209819Y-104560594D01*
X140209819Y-104560594D02*
X140209819Y-104322499D01*
X140209819Y-104322499D02*
X140257438Y-104179642D01*
X140257438Y-104179642D02*
X140352676Y-104084404D01*
X140352676Y-104084404D02*
X140447914Y-104036785D01*
X140447914Y-104036785D02*
X140638390Y-103989166D01*
X140638390Y-103989166D02*
X140781247Y-103989166D01*
X140781247Y-103989166D02*
X140971723Y-104036785D01*
X140971723Y-104036785D02*
X141066961Y-104084404D01*
X141066961Y-104084404D02*
X141162200Y-104179642D01*
X141162200Y-104179642D02*
X141209819Y-104322499D01*
X141209819Y-104322499D02*
X141209819Y-104560594D01*
X140209819Y-103655832D02*
X140209819Y-102989166D01*
X140209819Y-102989166D02*
X141209819Y-103417737D01*
X141529819Y-107894404D02*
X140529819Y-107894404D01*
X141529819Y-107322976D02*
X140958390Y-107751547D01*
X140529819Y-107322976D02*
X141101247Y-107894404D01*
X160259819Y-66506844D02*
X159259819Y-66506844D01*
X159259819Y-66506844D02*
X159259819Y-66268749D01*
X159259819Y-66268749D02*
X159307438Y-66125892D01*
X159307438Y-66125892D02*
X159402676Y-66030654D01*
X159402676Y-66030654D02*
X159497914Y-65983035D01*
X159497914Y-65983035D02*
X159688390Y-65935416D01*
X159688390Y-65935416D02*
X159831247Y-65935416D01*
X159831247Y-65935416D02*
X160021723Y-65983035D01*
X160021723Y-65983035D02*
X160116961Y-66030654D01*
X160116961Y-66030654D02*
X160212200Y-66125892D01*
X160212200Y-66125892D02*
X160259819Y-66268749D01*
X160259819Y-66268749D02*
X160259819Y-66506844D01*
X159355057Y-65554463D02*
X159307438Y-65506844D01*
X159307438Y-65506844D02*
X159259819Y-65411606D01*
X159259819Y-65411606D02*
X159259819Y-65173511D01*
X159259819Y-65173511D02*
X159307438Y-65078273D01*
X159307438Y-65078273D02*
X159355057Y-65030654D01*
X159355057Y-65030654D02*
X159450295Y-64983035D01*
X159450295Y-64983035D02*
X159545533Y-64983035D01*
X159545533Y-64983035D02*
X159688390Y-65030654D01*
X159688390Y-65030654D02*
X160259819Y-65602082D01*
X160259819Y-65602082D02*
X160259819Y-64983035D01*
X160579819Y-69840654D02*
X159579819Y-69840654D01*
X160579819Y-69269226D02*
X160008390Y-69697797D01*
X159579819Y-69269226D02*
X160151247Y-69840654D01*
X199965476Y-94807200D02*
X200108333Y-94854819D01*
X200108333Y-94854819D02*
X200346428Y-94854819D01*
X200346428Y-94854819D02*
X200441666Y-94807200D01*
X200441666Y-94807200D02*
X200489285Y-94759580D01*
X200489285Y-94759580D02*
X200536904Y-94664342D01*
X200536904Y-94664342D02*
X200536904Y-94569104D01*
X200536904Y-94569104D02*
X200489285Y-94473866D01*
X200489285Y-94473866D02*
X200441666Y-94426247D01*
X200441666Y-94426247D02*
X200346428Y-94378628D01*
X200346428Y-94378628D02*
X200155952Y-94331009D01*
X200155952Y-94331009D02*
X200060714Y-94283390D01*
X200060714Y-94283390D02*
X200013095Y-94235771D01*
X200013095Y-94235771D02*
X199965476Y-94140533D01*
X199965476Y-94140533D02*
X199965476Y-94045295D01*
X199965476Y-94045295D02*
X200013095Y-93950057D01*
X200013095Y-93950057D02*
X200060714Y-93902438D01*
X200060714Y-93902438D02*
X200155952Y-93854819D01*
X200155952Y-93854819D02*
X200394047Y-93854819D01*
X200394047Y-93854819D02*
X200536904Y-93902438D01*
X200870238Y-93854819D02*
X201108333Y-94854819D01*
X201108333Y-94854819D02*
X201298809Y-94140533D01*
X201298809Y-94140533D02*
X201489285Y-94854819D01*
X201489285Y-94854819D02*
X201727381Y-93854819D01*
X202632142Y-94854819D02*
X202060714Y-94854819D01*
X202346428Y-94854819D02*
X202346428Y-93854819D01*
X202346428Y-93854819D02*
X202251190Y-93997676D01*
X202251190Y-93997676D02*
X202155952Y-94092914D01*
X202155952Y-94092914D02*
X202060714Y-94140533D01*
X203251190Y-93854819D02*
X203346428Y-93854819D01*
X203346428Y-93854819D02*
X203441666Y-93902438D01*
X203441666Y-93902438D02*
X203489285Y-93950057D01*
X203489285Y-93950057D02*
X203536904Y-94045295D01*
X203536904Y-94045295D02*
X203584523Y-94235771D01*
X203584523Y-94235771D02*
X203584523Y-94473866D01*
X203584523Y-94473866D02*
X203536904Y-94664342D01*
X203536904Y-94664342D02*
X203489285Y-94759580D01*
X203489285Y-94759580D02*
X203441666Y-94807200D01*
X203441666Y-94807200D02*
X203346428Y-94854819D01*
X203346428Y-94854819D02*
X203251190Y-94854819D01*
X203251190Y-94854819D02*
X203155952Y-94807200D01*
X203155952Y-94807200D02*
X203108333Y-94759580D01*
X203108333Y-94759580D02*
X203060714Y-94664342D01*
X203060714Y-94664342D02*
X203013095Y-94473866D01*
X203013095Y-94473866D02*
X203013095Y-94235771D01*
X203013095Y-94235771D02*
X203060714Y-94045295D01*
X203060714Y-94045295D02*
X203108333Y-93950057D01*
X203108333Y-93950057D02*
X203155952Y-93902438D01*
X203155952Y-93902438D02*
X203251190Y-93854819D01*
X132016667Y-78258200D02*
X132159524Y-78305819D01*
X132159524Y-78305819D02*
X132397619Y-78305819D01*
X132397619Y-78305819D02*
X132492857Y-78258200D01*
X132492857Y-78258200D02*
X132540476Y-78210580D01*
X132540476Y-78210580D02*
X132588095Y-78115342D01*
X132588095Y-78115342D02*
X132588095Y-78020104D01*
X132588095Y-78020104D02*
X132540476Y-77924866D01*
X132540476Y-77924866D02*
X132492857Y-77877247D01*
X132492857Y-77877247D02*
X132397619Y-77829628D01*
X132397619Y-77829628D02*
X132207143Y-77782009D01*
X132207143Y-77782009D02*
X132111905Y-77734390D01*
X132111905Y-77734390D02*
X132064286Y-77686771D01*
X132064286Y-77686771D02*
X132016667Y-77591533D01*
X132016667Y-77591533D02*
X132016667Y-77496295D01*
X132016667Y-77496295D02*
X132064286Y-77401057D01*
X132064286Y-77401057D02*
X132111905Y-77353438D01*
X132111905Y-77353438D02*
X132207143Y-77305819D01*
X132207143Y-77305819D02*
X132445238Y-77305819D01*
X132445238Y-77305819D02*
X132588095Y-77353438D01*
X132921429Y-77305819D02*
X133159524Y-78305819D01*
X133159524Y-78305819D02*
X133350000Y-77591533D01*
X133350000Y-77591533D02*
X133540476Y-78305819D01*
X133540476Y-78305819D02*
X133778572Y-77305819D01*
X134588095Y-77639152D02*
X134588095Y-78305819D01*
X134350000Y-77258200D02*
X134111905Y-77972485D01*
X134111905Y-77972485D02*
X134730952Y-77972485D01*
X179309819Y-66460594D02*
X178309819Y-66460594D01*
X178309819Y-66460594D02*
X178309819Y-66222499D01*
X178309819Y-66222499D02*
X178357438Y-66079642D01*
X178357438Y-66079642D02*
X178452676Y-65984404D01*
X178452676Y-65984404D02*
X178547914Y-65936785D01*
X178547914Y-65936785D02*
X178738390Y-65889166D01*
X178738390Y-65889166D02*
X178881247Y-65889166D01*
X178881247Y-65889166D02*
X179071723Y-65936785D01*
X179071723Y-65936785D02*
X179166961Y-65984404D01*
X179166961Y-65984404D02*
X179262200Y-66079642D01*
X179262200Y-66079642D02*
X179309819Y-66222499D01*
X179309819Y-66222499D02*
X179309819Y-66460594D01*
X178309819Y-65555832D02*
X178309819Y-64936785D01*
X178309819Y-64936785D02*
X178690771Y-65270118D01*
X178690771Y-65270118D02*
X178690771Y-65127261D01*
X178690771Y-65127261D02*
X178738390Y-65032023D01*
X178738390Y-65032023D02*
X178786009Y-64984404D01*
X178786009Y-64984404D02*
X178881247Y-64936785D01*
X178881247Y-64936785D02*
X179119342Y-64936785D01*
X179119342Y-64936785D02*
X179214580Y-64984404D01*
X179214580Y-64984404D02*
X179262200Y-65032023D01*
X179262200Y-65032023D02*
X179309819Y-65127261D01*
X179309819Y-65127261D02*
X179309819Y-65412975D01*
X179309819Y-65412975D02*
X179262200Y-65508213D01*
X179262200Y-65508213D02*
X179214580Y-65555832D01*
X179629819Y-69794404D02*
X178629819Y-69794404D01*
X179629819Y-69222976D02*
X179058390Y-69651547D01*
X178629819Y-69222976D02*
X179201247Y-69794404D01*
D13*
%TO.C,U2*%
X225415000Y-89715000D02*
X225415000Y-77715000D01*
X225415000Y-77715000D02*
X187415000Y-77715000D01*
X220415000Y-77715000D02*
X220415000Y-89715000D01*
X190915000Y-77715000D02*
X190915000Y-89715000D01*
X187415000Y-89715000D02*
X225415000Y-89715000D01*
X187415000Y-77715000D02*
X187415000Y-89715000D01*
D14*
%TO.C,SW7*%
X126365000Y-97790000D02*
X140335000Y-97790000D01*
X126365000Y-111760000D02*
X126365000Y-97790000D01*
X140335000Y-97790000D02*
X140335000Y-111760000D01*
X140335000Y-111760000D02*
X126365000Y-111760000D01*
%TO.C,SW5*%
X145415000Y-78740000D02*
X159385000Y-78740000D01*
X145415000Y-92710000D02*
X145415000Y-78740000D01*
X159385000Y-78740000D02*
X159385000Y-92710000D01*
X159385000Y-92710000D02*
X145415000Y-92710000D01*
%TO.C,D9*%
X179855000Y-105102500D02*
X182095000Y-105102500D01*
X179855000Y-105222500D02*
X182095000Y-105222500D01*
X179855000Y-105342500D02*
X182095000Y-105342500D01*
X180975000Y-101052500D02*
X180975000Y-101702500D01*
X180975000Y-106592500D02*
X180975000Y-105942500D01*
X179855000Y-105942500D02*
X182095000Y-105942500D01*
X182095000Y-101702500D01*
X179855000Y-101702500D01*
X179855000Y-105942500D01*
%TO.C,D8*%
X160805000Y-105102500D02*
X163045000Y-105102500D01*
X160805000Y-105222500D02*
X163045000Y-105222500D01*
X160805000Y-105342500D02*
X163045000Y-105342500D01*
X161925000Y-101052500D02*
X161925000Y-101702500D01*
X161925000Y-106592500D02*
X161925000Y-105942500D01*
X160805000Y-105942500D02*
X163045000Y-105942500D01*
X163045000Y-101702500D01*
X160805000Y-101702500D01*
X160805000Y-105942500D01*
%TO.C,D6*%
X179855000Y-86052500D02*
X182095000Y-86052500D01*
X179855000Y-86172500D02*
X182095000Y-86172500D01*
X179855000Y-86292500D02*
X182095000Y-86292500D01*
X180975000Y-82002500D02*
X180975000Y-82652500D01*
X180975000Y-87542500D02*
X180975000Y-86892500D01*
X179855000Y-86892500D02*
X182095000Y-86892500D01*
X182095000Y-82652500D01*
X179855000Y-82652500D01*
X179855000Y-86892500D01*
%TO.C,SW1*%
X126365000Y-59690000D02*
X140335000Y-59690000D01*
X126365000Y-73660000D02*
X126365000Y-59690000D01*
X140335000Y-59690000D02*
X140335000Y-73660000D01*
X140335000Y-73660000D02*
X126365000Y-73660000D01*
%TO.C,SW6*%
X164465000Y-78740000D02*
X178435000Y-78740000D01*
X164465000Y-92710000D02*
X164465000Y-78740000D01*
X178435000Y-78740000D02*
X178435000Y-92710000D01*
X178435000Y-92710000D02*
X164465000Y-92710000D01*
%TO.C,SW2*%
X145415000Y-59690000D02*
X159385000Y-59690000D01*
X145415000Y-73660000D02*
X145415000Y-59690000D01*
X159385000Y-59690000D02*
X159385000Y-73660000D01*
X159385000Y-73660000D02*
X145415000Y-73660000D01*
D15*
%TO.C,U1*%
X207886000Y-54815000D02*
X207886000Y-68785000D01*
X209791000Y-52910000D02*
X226936000Y-52910000D01*
X209791000Y-70690000D02*
X226936000Y-70690000D01*
X228841000Y-57305000D02*
X229751272Y-57308728D01*
D16*
X228841000Y-68785000D02*
X228841000Y-54815000D01*
D15*
X228841000Y-68785000D02*
X228841000Y-54815000D01*
X229751000Y-66304000D02*
X228841000Y-66304000D01*
X230251000Y-57808728D02*
X230251000Y-65804000D01*
X207886000Y-54815000D02*
G75*
G02*
X209791000Y-52910000I1905001J-1D01*
G01*
X209791000Y-70690000D02*
G75*
G02*
X207886000Y-68785000I0J1905000D01*
G01*
X226936000Y-52910000D02*
G75*
G02*
X228841000Y-54815000I-1J-1905001D01*
G01*
X228841000Y-68785000D02*
G75*
G02*
X226936000Y-70690000I-1905000J0D01*
G01*
X229751272Y-57308728D02*
G75*
G02*
X230250999Y-57808728I-291J-500018D01*
G01*
X230251000Y-65804000D02*
G75*
G02*
X229751000Y-66304000I-500000J0D01*
G01*
D17*
X227972000Y-53993000D02*
G75*
G02*
X227468000Y-53993000I-252000J0D01*
G01*
X227468000Y-53993000D02*
G75*
G02*
X227972000Y-53993000I252000J0D01*
G01*
X228852000Y-52850000D02*
G75*
G02*
X228348000Y-52850000I-252000J0D01*
G01*
X228348000Y-52850000D02*
G75*
G02*
X228852000Y-52850000I252000J0D01*
G01*
D14*
%TO.C,D5*%
X160805000Y-86052500D02*
X163045000Y-86052500D01*
X160805000Y-86172500D02*
X163045000Y-86172500D01*
X160805000Y-86292500D02*
X163045000Y-86292500D01*
X161925000Y-82002500D02*
X161925000Y-82652500D01*
X161925000Y-87542500D02*
X161925000Y-86892500D01*
X160805000Y-86892500D02*
X163045000Y-86892500D01*
X163045000Y-82652500D01*
X160805000Y-82652500D01*
X160805000Y-86892500D01*
%TO.C,SW3*%
X164465000Y-59690000D02*
X178435000Y-59690000D01*
X164465000Y-73660000D02*
X164465000Y-59690000D01*
X178435000Y-59690000D02*
X178435000Y-73660000D01*
X178435000Y-73660000D02*
X164465000Y-73660000D01*
%TO.C,SW8*%
X145415000Y-97790000D02*
X159385000Y-97790000D01*
X145415000Y-111760000D02*
X145415000Y-97790000D01*
X159385000Y-97790000D02*
X159385000Y-111760000D01*
X159385000Y-111760000D02*
X145415000Y-111760000D01*
%TO.C,D4*%
X141755000Y-86052500D02*
X143995000Y-86052500D01*
X141755000Y-86172500D02*
X143995000Y-86172500D01*
X141755000Y-86292500D02*
X143995000Y-86292500D01*
X142875000Y-82002500D02*
X142875000Y-82652500D01*
X142875000Y-87542500D02*
X142875000Y-86892500D01*
X141755000Y-86892500D02*
X143995000Y-86892500D01*
X143995000Y-82652500D01*
X141755000Y-82652500D01*
X141755000Y-86892500D01*
%TO.C,SW9*%
X164465000Y-97790000D02*
X178435000Y-97790000D01*
X164465000Y-111760000D02*
X164465000Y-97790000D01*
X178435000Y-97790000D02*
X178435000Y-111760000D01*
X178435000Y-111760000D02*
X164465000Y-111760000D01*
%TO.C,D1*%
X141755000Y-67002500D02*
X143995000Y-67002500D01*
X141755000Y-67122500D02*
X143995000Y-67122500D01*
X141755000Y-67242500D02*
X143995000Y-67242500D01*
X142875000Y-62952500D02*
X142875000Y-63602500D01*
X142875000Y-68492500D02*
X142875000Y-67842500D01*
X141755000Y-67842500D02*
X143995000Y-67842500D01*
X143995000Y-63602500D01*
X141755000Y-63602500D01*
X141755000Y-67842500D01*
%TO.C,D7*%
X141755000Y-105102500D02*
X143995000Y-105102500D01*
X141755000Y-105222500D02*
X143995000Y-105222500D01*
X141755000Y-105342500D02*
X143995000Y-105342500D01*
X142875000Y-101052500D02*
X142875000Y-101702500D01*
X142875000Y-106592500D02*
X142875000Y-105942500D01*
X141755000Y-105942500D02*
X143995000Y-105942500D01*
X143995000Y-101702500D01*
X141755000Y-101702500D01*
X141755000Y-105942500D01*
%TO.C,D2*%
X160805000Y-67048750D02*
X163045000Y-67048750D01*
X160805000Y-67168750D02*
X163045000Y-67168750D01*
X160805000Y-67288750D02*
X163045000Y-67288750D01*
X161925000Y-62998750D02*
X161925000Y-63648750D01*
X161925000Y-68538750D02*
X161925000Y-67888750D01*
X160805000Y-67888750D02*
X163045000Y-67888750D01*
X163045000Y-63648750D01*
X160805000Y-63648750D01*
X160805000Y-67888750D01*
%TO.C,SW10*%
X198675000Y-97500000D02*
X199275000Y-97500000D01*
X198975000Y-97800000D02*
X198675000Y-97500000D01*
X199275000Y-97500000D02*
X198975000Y-97800000D01*
X200375000Y-95800000D02*
X200375000Y-107500000D01*
X204475000Y-95800000D02*
X200375000Y-95800000D01*
X204475000Y-107500000D02*
X200375000Y-107500000D01*
X205975000Y-101600000D02*
X206975000Y-101600000D01*
X206475000Y-101100000D02*
X206475000Y-102100000D01*
X208475000Y-95700000D02*
X212575000Y-95700000D01*
X212575000Y-95700000D02*
X212575000Y-98300000D01*
X212575000Y-100300000D02*
X212575000Y-102900000D01*
X212575000Y-104900000D02*
X212575000Y-107500000D01*
X212575000Y-107500000D02*
X208475000Y-107500000D01*
X209475000Y-101600000D02*
G75*
G02*
X203475000Y-101600000I-3000000J0D01*
G01*
X203475000Y-101600000D02*
G75*
G02*
X209475000Y-101600000I3000000J0D01*
G01*
%TO.C,SW4*%
X126365000Y-78740000D02*
X140335000Y-78740000D01*
X126365000Y-92710000D02*
X126365000Y-78740000D01*
X140335000Y-78740000D02*
X140335000Y-92710000D01*
X140335000Y-92710000D02*
X126365000Y-92710000D01*
%TO.C,D3*%
X179855000Y-67002500D02*
X182095000Y-67002500D01*
X179855000Y-67122500D02*
X182095000Y-67122500D01*
X179855000Y-67242500D02*
X182095000Y-67242500D01*
X180975000Y-62952500D02*
X180975000Y-63602500D01*
X180975000Y-68492500D02*
X180975000Y-67842500D01*
X179855000Y-67842500D02*
X182095000Y-67842500D01*
X182095000Y-63602500D01*
X179855000Y-63602500D01*
X179855000Y-67842500D01*
%TD*%
M02*
