%TF.GenerationSoftware,KiCad,Pcbnew,9.0.2*%
%TF.CreationDate,2025-07-02T20:50:27-04:00*%
%TF.ProjectId,Hackpad,4861636b-7061-4642-9e6b-696361645f70,rev?*%
%TF.SameCoordinates,Original*%
%TF.FileFunction,Soldermask,Bot*%
%TF.FilePolarity,Negative*%
%FSLAX46Y46*%
G04 Gerber Fmt 4.6, Leading zero omitted, Abs format (unit mm)*
G04 Created by KiCad (PCBNEW 9.0.2) date 2025-07-02 20:50:27*
%MOMM*%
%LPD*%
G01*
G04 APERTURE LIST*
G04 Aperture macros list*
%AMRoundRect*
0 Rectangle with rounded corners*
0 $1 Rounding radius*
0 $2 $3 $4 $5 $6 $7 $8 $9 X,Y pos of 4 corners*
0 Add a 4 corners polygon primitive as box body*
4,1,4,$2,$3,$4,$5,$6,$7,$8,$9,$2,$3,0*
0 Add four circle primitives for the rounded corners*
1,1,$1+$1,$2,$3*
1,1,$1+$1,$4,$5*
1,1,$1+$1,$6,$7*
1,1,$1+$1,$8,$9*
0 Add four rect primitives between the rounded corners*
20,1,$1+$1,$2,$3,$4,$5,0*
20,1,$1+$1,$4,$5,$6,$7,0*
20,1,$1+$1,$6,$7,$8,$9,0*
20,1,$1+$1,$8,$9,$2,$3,0*%
G04 Aperture macros list end*
%ADD10O,1.700000X1.700000*%
%ADD11R,1.700000X1.700000*%
%ADD12C,1.700000*%
%ADD13C,4.000000*%
%ADD14C,2.200000*%
%ADD15RoundRect,0.250000X0.550000X-0.550000X0.550000X0.550000X-0.550000X0.550000X-0.550000X-0.550000X0*%
%ADD16C,1.600000*%
%ADD17C,1.524000*%
%ADD18C,1.500000*%
%ADD19R,2.000000X2.000000*%
%ADD20C,2.000000*%
%ADD21R,3.200000X2.000000*%
G04 APERTURE END LIST*
D10*
%TO.C,U2*%
X223915000Y-87525000D03*
X223915000Y-84985000D03*
X223915000Y-82445000D03*
D11*
X223915000Y-79905000D03*
%TD*%
D12*
%TO.C,SW7*%
X128270000Y-104775000D03*
D13*
X133350000Y-104775000D03*
D12*
X138430000Y-104775000D03*
D14*
X135890000Y-99695000D03*
X129540000Y-102235000D03*
%TD*%
D12*
%TO.C,SW5*%
X147320000Y-85725000D03*
D13*
X152400000Y-85725000D03*
D12*
X157480000Y-85725000D03*
D14*
X154940000Y-80645000D03*
X148590000Y-83185000D03*
%TD*%
D15*
%TO.C,D9*%
X180975000Y-107632500D03*
D16*
X180975000Y-100012500D03*
%TD*%
D15*
%TO.C,D8*%
X161925000Y-107632500D03*
D16*
X161925000Y-100012500D03*
%TD*%
D15*
%TO.C,D6*%
X180975000Y-88582500D03*
D16*
X180975000Y-80962500D03*
%TD*%
D12*
%TO.C,SW1*%
X128270000Y-66675000D03*
D13*
X133350000Y-66675000D03*
D12*
X138430000Y-66675000D03*
D14*
X135890000Y-61595000D03*
X129540000Y-64135000D03*
%TD*%
D12*
%TO.C,SW6*%
X166370000Y-85725000D03*
D13*
X171450000Y-85725000D03*
D12*
X176530000Y-85725000D03*
D14*
X173990000Y-80645000D03*
X167640000Y-83185000D03*
%TD*%
D12*
%TO.C,SW2*%
X147320000Y-66675000D03*
D13*
X152400000Y-66675000D03*
D12*
X157480000Y-66675000D03*
D14*
X154940000Y-61595000D03*
X148590000Y-64135000D03*
%TD*%
D17*
%TO.C,U1*%
X225920000Y-54180000D03*
X223380000Y-54180000D03*
X220840000Y-54180000D03*
X218300000Y-54180000D03*
X215760000Y-54180000D03*
X213220000Y-54180000D03*
X210680000Y-54180000D03*
X210680000Y-69420000D03*
X213220000Y-69420000D03*
X215760000Y-69420000D03*
X218300000Y-69420000D03*
X220840000Y-69420000D03*
X223380000Y-69420000D03*
X225920000Y-69420000D03*
%TD*%
D15*
%TO.C,D5*%
X161925000Y-88582500D03*
D16*
X161925000Y-80962500D03*
%TD*%
D12*
%TO.C,SW3*%
X166370000Y-66675000D03*
D13*
X171450000Y-66675000D03*
D12*
X176530000Y-66675000D03*
D14*
X173990000Y-61595000D03*
X167640000Y-64135000D03*
%TD*%
D12*
%TO.C,SW8*%
X147320000Y-104775000D03*
D13*
X152400000Y-104775000D03*
D12*
X157480000Y-104775000D03*
D14*
X154940000Y-99695000D03*
X148590000Y-102235000D03*
%TD*%
D15*
%TO.C,D4*%
X142875000Y-88582500D03*
D16*
X142875000Y-80962500D03*
%TD*%
D12*
%TO.C,SW9*%
X166370000Y-104775000D03*
D13*
X171450000Y-104775000D03*
D12*
X176530000Y-104775000D03*
D14*
X173990000Y-99695000D03*
X167640000Y-102235000D03*
%TD*%
D15*
%TO.C,D1*%
X142875000Y-69532500D03*
D16*
X142875000Y-61912500D03*
%TD*%
D15*
%TO.C,D7*%
X142875000Y-107632500D03*
D16*
X142875000Y-100012500D03*
%TD*%
D15*
%TO.C,D2*%
X161925000Y-69578750D03*
D16*
X161925000Y-61958750D03*
%TD*%
D18*
%TO.C,SW10*%
X213475000Y-99100000D03*
X213475000Y-104100000D03*
D19*
X198975000Y-99100000D03*
D20*
X198975000Y-104100000D03*
X198975000Y-101600000D03*
D21*
X206475000Y-96000000D03*
X206475000Y-107200000D03*
%TD*%
D12*
%TO.C,SW4*%
X128270000Y-85725000D03*
D13*
X133350000Y-85725000D03*
D12*
X138430000Y-85725000D03*
D14*
X135890000Y-80645000D03*
X129540000Y-83185000D03*
%TD*%
D15*
%TO.C,D3*%
X180975000Y-69532500D03*
D16*
X180975000Y-61912500D03*
%TD*%
M02*
