M48
; DRILL file {KiCad 9.0.2} date 2025-07-02T20:50:29-0400
; FORMAT={-:-/ absolute / metric / decimal}
; #@! TF.CreationDate,2025-07-02T20:50:29-04:00
; #@! TF.GenerationSoftware,Kicad,Pcbnew,9.0.2
; #@! TF.FileFunction,NonPlated,1,2,NPTH
FMAT,2
METRIC
; #@! TA.AperFunction,NonPlated,NPTH,ComponentDrill
T1C1.700
; #@! TA.AperFunction,NonPlated,NPTH,ComponentDrill
T2C4.000
%
G90
G05
T1
X128.27Y-66.675
X128.27Y-85.725
X128.27Y-104.775
X138.43Y-66.675
X138.43Y-85.725
X138.43Y-104.775
X147.32Y-66.675
X147.32Y-85.725
X147.32Y-104.775
X157.48Y-66.675
X157.48Y-85.725
X157.48Y-104.775
X166.37Y-66.675
X166.37Y-85.725
X166.37Y-104.775
X176.53Y-66.675
X176.53Y-85.725
X176.53Y-104.775
T2
X133.35Y-66.675
X133.35Y-85.725
X133.35Y-104.775
X152.4Y-66.675
X152.4Y-85.725
X152.4Y-104.775
X171.45Y-66.675
X171.45Y-85.725
X171.45Y-104.775
M30
