%TF.GenerationSoftware,KiCad,Pcbnew,9.0.2*%
%TF.CreationDate,2025-07-02T20:50:27-04:00*%
%TF.ProjectId,Hackpad,4861636b-7061-4642-9e6b-696361645f70,rev?*%
%TF.SameCoordinates,Original*%
%TF.FileFunction,Copper,L1,Top*%
%TF.FilePolarity,Positive*%
%FSLAX46Y46*%
G04 Gerber Fmt 4.6, Leading zero omitted, Abs format (unit mm)*
G04 Created by KiCad (PCBNEW 9.0.2) date 2025-07-02 20:50:27*
%MOMM*%
%LPD*%
G01*
G04 APERTURE LIST*
G04 Aperture macros list*
%AMRoundRect*
0 Rectangle with rounded corners*
0 $1 Rounding radius*
0 $2 $3 $4 $5 $6 $7 $8 $9 X,Y pos of 4 corners*
0 Add a 4 corners polygon primitive as box body*
4,1,4,$2,$3,$4,$5,$6,$7,$8,$9,$2,$3,0*
0 Add four circle primitives for the rounded corners*
1,1,$1+$1,$2,$3*
1,1,$1+$1,$4,$5*
1,1,$1+$1,$6,$7*
1,1,$1+$1,$8,$9*
0 Add four rect primitives between the rounded corners*
20,1,$1+$1,$2,$3,$4,$5,0*
20,1,$1+$1,$4,$5,$6,$7,0*
20,1,$1+$1,$6,$7,$8,$9,0*
20,1,$1+$1,$8,$9,$2,$3,0*%
G04 Aperture macros list end*
%TA.AperFunction,ComponentPad*%
%ADD10O,1.700000X1.700000*%
%TD*%
%TA.AperFunction,ComponentPad*%
%ADD11R,1.700000X1.700000*%
%TD*%
%TA.AperFunction,ComponentPad*%
%ADD12C,2.200000*%
%TD*%
%TA.AperFunction,ComponentPad*%
%ADD13RoundRect,0.250000X0.550000X-0.550000X0.550000X0.550000X-0.550000X0.550000X-0.550000X-0.550000X0*%
%TD*%
%TA.AperFunction,ComponentPad*%
%ADD14C,1.600000*%
%TD*%
%TA.AperFunction,SMDPad,CuDef*%
%ADD15RoundRect,0.152400X0.609600X-1.063600X0.609600X1.063600X-0.609600X1.063600X-0.609600X-1.063600X0*%
%TD*%
%TA.AperFunction,ComponentPad*%
%ADD16C,1.524000*%
%TD*%
%TA.AperFunction,SMDPad,CuDef*%
%ADD17RoundRect,0.152400X-0.609600X1.063600X-0.609600X-1.063600X0.609600X-1.063600X0.609600X1.063600X0*%
%TD*%
%TA.AperFunction,ComponentPad*%
%ADD18C,1.500000*%
%TD*%
%TA.AperFunction,ComponentPad*%
%ADD19R,2.000000X2.000000*%
%TD*%
%TA.AperFunction,ComponentPad*%
%ADD20C,2.000000*%
%TD*%
%TA.AperFunction,ComponentPad*%
%ADD21R,3.200000X2.000000*%
%TD*%
%TA.AperFunction,Conductor*%
%ADD22C,0.200000*%
%TD*%
G04 APERTURE END LIST*
D10*
%TO.P,U2,4,SDA*%
%TO.N,OL_SDA*%
X223915000Y-87525000D03*
%TO.P,U2,3,SCL*%
%TO.N,OL_SCL*%
X223915000Y-84985000D03*
%TO.P,U2,2,VCC*%
%TO.N,Net-(U1-3V3)*%
X223915000Y-82445000D03*
D11*
%TO.P,U2,1,GND*%
%TO.N,GND*%
X223915000Y-79905000D03*
%TD*%
D12*
%TO.P,SW7,1,1*%
%TO.N,Net-(D7-A)*%
X135890000Y-99695000D03*
%TO.P,SW7,2,2*%
%TO.N,Col 0*%
X129540000Y-102235000D03*
%TD*%
%TO.P,SW5,1,1*%
%TO.N,Net-(D5-A)*%
X154940000Y-80645000D03*
%TO.P,SW5,2,2*%
%TO.N,Col 1*%
X148590000Y-83185000D03*
%TD*%
D13*
%TO.P,D9,1,K*%
%TO.N,Row 2*%
X180975000Y-107632500D03*
D14*
%TO.P,D9,2,A*%
%TO.N,Net-(D9-A)*%
X180975000Y-100012500D03*
%TD*%
D13*
%TO.P,D8,1,K*%
%TO.N,Row 2*%
X161925000Y-107632500D03*
D14*
%TO.P,D8,2,A*%
%TO.N,Net-(D8-A)*%
X161925000Y-100012500D03*
%TD*%
D13*
%TO.P,D6,1,K*%
%TO.N,Row 1*%
X180975000Y-88582500D03*
D14*
%TO.P,D6,2,A*%
%TO.N,Net-(D6-A)*%
X180975000Y-80962500D03*
%TD*%
D12*
%TO.P,SW1,1,1*%
%TO.N,Net-(D1-A)*%
X135890000Y-61595000D03*
%TO.P,SW1,2,2*%
%TO.N,Col 0*%
X129540000Y-64135000D03*
%TD*%
%TO.P,SW6,1,1*%
%TO.N,Net-(D6-A)*%
X173990000Y-80645000D03*
%TO.P,SW6,2,2*%
%TO.N,Col 2*%
X167640000Y-83185000D03*
%TD*%
%TO.P,SW2,1,1*%
%TO.N,Net-(D2-A)*%
X154940000Y-61595000D03*
%TO.P,SW2,2,2*%
%TO.N,Col 1*%
X148590000Y-64135000D03*
%TD*%
D15*
%TO.P,U1,1,GPIO26/ADC0/A0*%
%TO.N,Col 2*%
X225920000Y-53345000D03*
D16*
X225920000Y-54180000D03*
D15*
%TO.P,U1,2,GPIO27/ADC1/A1*%
%TO.N,Col 1*%
X223380000Y-53345000D03*
D16*
X223380000Y-54180000D03*
D15*
%TO.P,U1,3,GPIO28/ADC2/A2*%
%TO.N,Col 0*%
X220840000Y-53345000D03*
D16*
X220840000Y-54180000D03*
D15*
%TO.P,U1,4,GPIO29/ADC3/A3*%
%TO.N,Row 2*%
X218300000Y-53345000D03*
D16*
X218300000Y-54180000D03*
D15*
%TO.P,U1,5,GPIO6/SDA*%
%TO.N,OL_SDA*%
X215760000Y-53345000D03*
D16*
X215760000Y-54180000D03*
D15*
%TO.P,U1,6,GPIO7/SCL*%
%TO.N,OL_SCL*%
X213220000Y-53345000D03*
D16*
X213220000Y-54180000D03*
D15*
%TO.P,U1,7,GPIO0/TX*%
%TO.N,unconnected-(U1-GPIO0{slash}TX-Pad7)*%
X210680000Y-53345000D03*
D16*
X210680000Y-54180000D03*
%TO.P,U1,8,GPIO1/RX*%
%TO.N,EN_A*%
X210680000Y-69420000D03*
D17*
X210680000Y-70255000D03*
D16*
%TO.P,U1,9,GPIO2/SCK*%
%TO.N,EN_B*%
X213220000Y-69420000D03*
D17*
X213220000Y-70255000D03*
D16*
%TO.P,U1,10,GPIO4/MISO*%
%TO.N,Row 0*%
X215760000Y-69420000D03*
D17*
X215760000Y-70255000D03*
D16*
%TO.P,U1,11,GPIO3/MOSI*%
%TO.N,Row 1*%
X218300000Y-69420000D03*
D17*
X218300000Y-70255000D03*
D16*
%TO.P,U1,12,3V3*%
%TO.N,Net-(U1-3V3)*%
X220840000Y-69420000D03*
D17*
X220840000Y-70255000D03*
D16*
%TO.P,U1,13,GND*%
%TO.N,GND*%
X223380000Y-69420000D03*
D17*
X223380000Y-70255000D03*
D16*
%TO.P,U1,14,VBUS*%
%TO.N,+5V*%
X225920000Y-69420000D03*
D17*
X225920000Y-70255000D03*
%TD*%
D13*
%TO.P,D5,1,K*%
%TO.N,Row 1*%
X161925000Y-88582500D03*
D14*
%TO.P,D5,2,A*%
%TO.N,Net-(D5-A)*%
X161925000Y-80962500D03*
%TD*%
D12*
%TO.P,SW3,1,1*%
%TO.N,Net-(D3-A)*%
X173990000Y-61595000D03*
%TO.P,SW3,2,2*%
%TO.N,Col 2*%
X167640000Y-64135000D03*
%TD*%
%TO.P,SW8,1,1*%
%TO.N,Net-(D8-A)*%
X154940000Y-99695000D03*
%TO.P,SW8,2,2*%
%TO.N,Col 1*%
X148590000Y-102235000D03*
%TD*%
D13*
%TO.P,D4,1,K*%
%TO.N,Row 1*%
X142875000Y-88582500D03*
D14*
%TO.P,D4,2,A*%
%TO.N,Net-(D4-A)*%
X142875000Y-80962500D03*
%TD*%
D12*
%TO.P,SW9,1,1*%
%TO.N,Net-(D9-A)*%
X173990000Y-99695000D03*
%TO.P,SW9,2,2*%
%TO.N,Col 2*%
X167640000Y-102235000D03*
%TD*%
D13*
%TO.P,D1,1,K*%
%TO.N,Row 0*%
X142875000Y-69532500D03*
D14*
%TO.P,D1,2,A*%
%TO.N,Net-(D1-A)*%
X142875000Y-61912500D03*
%TD*%
D13*
%TO.P,D7,1,K*%
%TO.N,Row 2*%
X142875000Y-107632500D03*
D14*
%TO.P,D7,2,A*%
%TO.N,Net-(D7-A)*%
X142875000Y-100012500D03*
%TD*%
D13*
%TO.P,D2,1,K*%
%TO.N,Row 0*%
X161925000Y-69578750D03*
D14*
%TO.P,D2,2,A*%
%TO.N,Net-(D2-A)*%
X161925000Y-61958750D03*
%TD*%
D18*
%TO.P,SW10,*%
%TO.N,*%
X213475000Y-99100000D03*
X213475000Y-104100000D03*
D19*
%TO.P,SW10,A,A*%
%TO.N,EN_A*%
X198975000Y-99100000D03*
D20*
%TO.P,SW10,B,B*%
%TO.N,EN_B*%
X198975000Y-104100000D03*
%TO.P,SW10,C,C*%
%TO.N,GND*%
X198975000Y-101600000D03*
D21*
%TO.P,SW10,MP*%
%TO.N,N/C*%
X206475000Y-96000000D03*
X206475000Y-107200000D03*
%TD*%
D12*
%TO.P,SW4,1,1*%
%TO.N,Net-(D4-A)*%
X135890000Y-80645000D03*
%TO.P,SW4,2,2*%
%TO.N,Col 0*%
X129540000Y-83185000D03*
%TD*%
D13*
%TO.P,D3,1,K*%
%TO.N,Row 0*%
X180975000Y-69532500D03*
D14*
%TO.P,D3,2,A*%
%TO.N,Net-(D3-A)*%
X180975000Y-61912500D03*
%TD*%
D22*
%TO.N,Row 1*%
X142875000Y-88582500D02*
X161925000Y-88582500D01*
%TO.N,Net-(U1-3V3)*%
X220840000Y-79370000D02*
X223915000Y-82445000D01*
X220840000Y-69420000D02*
X220840000Y-79370000D01*
%TO.N,Row 2*%
X182076000Y-106531500D02*
X180975000Y-107632500D01*
X210239690Y-68357000D02*
X182076000Y-96520690D01*
X215319690Y-68357000D02*
X210239690Y-68357000D01*
X226983000Y-56693690D02*
X215319690Y-68357000D01*
X226983000Y-52089374D02*
X226983000Y-56693690D01*
X226721626Y-51828000D02*
X226983000Y-52089374D01*
X219574370Y-51828000D02*
X226721626Y-51828000D01*
X218300000Y-53102370D02*
X219574370Y-51828000D01*
X218300000Y-54180000D02*
X218300000Y-53102370D01*
%TO.N,GND*%
X223380000Y-70255000D02*
X223380000Y-79370000D01*
X223380000Y-79370000D02*
X223915000Y-79905000D01*
%TO.N,Row 0*%
X180975000Y-69532500D02*
X142875000Y-69532500D01*
%TO.N,Net-(D1-A)*%
X142557500Y-61595000D02*
X142875000Y-61912500D01*
X135890000Y-61595000D02*
X142557500Y-61595000D01*
%TO.N,Net-(D2-A)*%
X154940000Y-61595000D02*
X161561250Y-61595000D01*
X161561250Y-61595000D02*
X161925000Y-61958750D01*
%TO.N,Net-(D3-A)*%
X173990000Y-61595000D02*
X180657500Y-61595000D01*
X180657500Y-61595000D02*
X180975000Y-61912500D01*
%TO.N,Net-(D4-A)*%
X135890000Y-80645000D02*
X142557500Y-80645000D01*
X142557500Y-80645000D02*
X142875000Y-80962500D01*
%TO.N,Row 1*%
X161925000Y-88582500D02*
X180975000Y-88582500D01*
%TO.N,Net-(D5-A)*%
X161607500Y-80645000D02*
X161925000Y-80962500D01*
X154940000Y-80645000D02*
X161607500Y-80645000D01*
%TO.N,Net-(D6-A)*%
X180657500Y-80645000D02*
X180975000Y-80962500D01*
X173990000Y-80645000D02*
X180657500Y-80645000D01*
%TO.N,Row 2*%
X180975000Y-107632500D02*
X142875000Y-107632500D01*
%TO.N,Net-(D7-A)*%
X142557500Y-99695000D02*
X142875000Y-100012500D01*
X135890000Y-99695000D02*
X142557500Y-99695000D01*
%TO.N,Net-(D8-A)*%
X154940000Y-99695000D02*
X161607500Y-99695000D01*
X161607500Y-99695000D02*
X161925000Y-100012500D01*
%TO.N,Net-(D9-A)*%
X173990000Y-99695000D02*
X180657500Y-99695000D01*
X180657500Y-99695000D02*
X180975000Y-100012500D01*
%TO.N,Col 0*%
X138432000Y-55243000D02*
X129540000Y-64135000D01*
X219777000Y-55243000D02*
X138432000Y-55243000D01*
X220840000Y-54180000D02*
X219777000Y-55243000D01*
%TO.N,Col 1*%
X223380000Y-54180000D02*
X218028750Y-59531250D01*
X218028750Y-59531250D02*
X153193750Y-59531250D01*
X153193750Y-59531250D02*
X148590000Y-64135000D01*
%TO.N,Col 2*%
X215965000Y-64135000D02*
X167640000Y-64135000D01*
X225920000Y-54180000D02*
X215965000Y-64135000D01*
%TO.N,EN_B*%
X213220000Y-70255000D02*
X213220000Y-86053000D01*
X200276000Y-98997000D02*
X200276000Y-102799000D01*
X213220000Y-86053000D02*
X200276000Y-98997000D01*
X200276000Y-102799000D02*
X198975000Y-104100000D01*
%TO.N,EN_A*%
X210680000Y-87395000D02*
X198975000Y-99100000D01*
X210680000Y-69420000D02*
X210680000Y-87395000D01*
%TO.N,Row 2*%
X182076000Y-96520690D02*
X182076000Y-106531500D01*
%TD*%
M02*
