M48
; DRILL file {KiCad 9.0.2} date 2025-07-02T20:50:29-0400
; FORMAT={-:-/ absolute / metric / decimal}
; #@! TF.CreationDate,2025-07-02T20:50:29-04:00
; #@! TF.GenerationSoftware,Kicad,Pcbnew,9.0.2
; #@! TF.FileFunction,Plated,1,2,PTH
FMAT,2
METRIC
; #@! TA.AperFunction,Plated,PTH,ComponentDrill
T1C0.800
; #@! TA.AperFunction,Plated,PTH,ComponentDrill
T2C0.889
; #@! TA.AperFunction,Plated,PTH,ComponentDrill
T3C1.000
; #@! TA.AperFunction,Plated,PTH,ComponentDrill
T4C1.500
%
G90
G05
T1
X142.875Y-61.912
X142.875Y-69.532
X142.875Y-80.962
X142.875Y-88.582
X142.875Y-100.012
X142.875Y-107.632
X161.925Y-61.959
X161.925Y-69.579
X161.925Y-80.962
X161.925Y-88.582
X161.925Y-100.012
X161.925Y-107.632
X180.975Y-61.912
X180.975Y-69.532
X180.975Y-80.962
X180.975Y-88.582
X180.975Y-100.012
X180.975Y-107.632
T2
X210.68Y-54.18
X210.68Y-69.42
X213.22Y-54.18
X213.22Y-69.42
X215.76Y-54.18
X215.76Y-69.42
X218.3Y-54.18
X218.3Y-69.42
X220.84Y-54.18
X220.84Y-69.42
X223.38Y-54.18
X223.38Y-69.42
X225.92Y-54.18
X225.92Y-69.42
T3
X198.975Y-99.1
X198.975Y-101.6
X198.975Y-104.1
X213.475Y-99.1
X213.475Y-104.1
X223.915Y-79.905
X223.915Y-82.445
X223.915Y-84.985
X223.915Y-87.525
T4
X129.54Y-64.135
X129.54Y-83.185
X129.54Y-102.235
X135.89Y-61.595
X135.89Y-80.645
X135.89Y-99.695
X148.59Y-64.135
X148.59Y-83.185
X148.59Y-102.235
X154.94Y-61.595
X154.94Y-80.645
X154.94Y-99.695
X167.64Y-64.135
X167.64Y-83.185
X167.64Y-102.235
X173.99Y-61.595
X173.99Y-80.645
X173.99Y-99.695
T4
G00X205.825Y-96.0
M15
G01X207.125Y-96.0
M16
G05
G00X205.825Y-107.2
M15
G01X207.125Y-107.2
M16
G05
M30
